<svg xmlns="http://www.w3.org/2000/svg" width="1080" height="1080" viewBox="0 0 1080 1080">
<defs>
  <linearGradient id="bg" x1="0%" y1="0%" x2="100%" y2="100%">
    <stop offset="0%" style="stop-color:#0a0a0f;stop-opacity:1"/>
    <stop offset="100%" style="stop-color:#1a0a2f;stop-opacity:1"/>
  </linearGradient>
  <filter id="glow"><feGaussianBlur stdDeviation="2" result="b"/><feMerge><feMergeNode in="b"/><feMergeNode in="SourceGraphic"/></feMerge></filter>
  <filter id="glow-strong"><feGaussianBlur stdDeviation="4" result="b"/><feMerge><feMergeNode in="b"/><feMergeNode in="SourceGraphic"/></feMerge></filter>
</defs>
<rect width="1080" height="1080" fill="url(#bg)"/>
<rect x="0" y="0" width="1080" height="1080" fill="rgb(140,44,35)" opacity="0.12"/>
<circle cx="108.0" cy="108.0" r="6.9" fill="#8844ff" opacity="0.0032"/>
<text x="108.0" y="126.9" fill="#8844ff" opacity="0.04" font-family="monospace" font-size="9" text-anchor="middle">0.040</text>
<circle cx="324.0" cy="108.0" r="103.7" fill="#8844ff" opacity="0.048"/>
<text x="324.0" y="223.7" fill="#8844ff" opacity="0.04" font-family="monospace" font-size="9" text-anchor="middle">0.600</text>
<circle cx="540.0" cy="108.0" r="86.4" fill="#8844ff" opacity="0.04"/>
<text x="540.0" y="206.4" fill="#8844ff" opacity="0.04" font-family="monospace" font-size="9" text-anchor="middle">0.500</text>
<circle cx="756.0" cy="108.0" r="95.2" fill="#8844ff" opacity="0.04406389874561745"/>
<text x="756.0" y="215.2" fill="#8844ff" opacity="0.04" font-family="monospace" font-size="9" text-anchor="middle">0.551</text>
<circle cx="972.0" cy="108.0" r="77.6" fill="#8844ff" opacity="0.03593610125438255"/>
<text x="972.0" y="197.6" fill="#8844ff" opacity="0.04" font-family="monospace" font-size="9" text-anchor="middle">0.449</text>
<circle cx="540.0" cy="540.0" r="80" fill="none" stroke="#702c67" stroke-width="1" opacity="0.045"/>
<circle cx="464.6" cy="513.1" r="3" fill="#702c67" opacity="0.15"/>
<line x1="540.0" y1="540.0" x2="464.6" y2="513.1" stroke="#702c67" stroke-width="0.5" opacity="0.075"/>
<circle cx="539.0" cy="460.0" r="3" fill="#702c67" opacity="0.15"/>
<line x1="540.0" y1="540.0" x2="539.0" y2="460.0" stroke="#702c67" stroke-width="0.5" opacity="0.075"/>
<circle cx="595.8" cy="597.3" r="3" fill="#702c67" opacity="0.15"/>
<line x1="540.0" y1="540.0" x2="595.8" y2="597.3" stroke="#702c67" stroke-width="0.5" opacity="0.075"/>
<circle cx="460.1" cy="536.9" r="3" fill="#702c67" opacity="0.15"/>
<line x1="540.0" y1="540.0" x2="460.1" y2="536.9" stroke="#702c67" stroke-width="0.5" opacity="0.075"/>
<circle cx="515.1" cy="464.0" r="3" fill="#702c67" opacity="0.15"/>
<line x1="540.0" y1="540.0" x2="515.1" y2="464.0" stroke="#702c67" stroke-width="0.5" opacity="0.075"/>
<circle cx="540.0" cy="540.0" r="140" fill="none" stroke="#702c67" stroke-width="1" opacity="0.036"/>
<circle cx="408.1" cy="493.0" r="3" fill="#702c67" opacity="0.12"/>
<line x1="540.0" y1="540.0" x2="408.1" y2="493.0" stroke="#702c67" stroke-width="0.5" opacity="0.06"/>
<circle cx="538.2" cy="400.0" r="3" fill="#702c67" opacity="0.12"/>
<line x1="540.0" y1="540.0" x2="538.2" y2="400.0" stroke="#702c67" stroke-width="0.5" opacity="0.06"/>
<circle cx="637.7" cy="640.3" r="3" fill="#702c67" opacity="0.12"/>
<line x1="540.0" y1="540.0" x2="637.7" y2="640.3" stroke="#702c67" stroke-width="0.5" opacity="0.06"/>
<circle cx="400.1" cy="534.5" r="3" fill="#702c67" opacity="0.12"/>
<line x1="540.0" y1="540.0" x2="400.1" y2="534.5" stroke="#702c67" stroke-width="0.5" opacity="0.06"/>
<circle cx="496.5" cy="406.9" r="3" fill="#702c67" opacity="0.12"/>
<line x1="540.0" y1="540.0" x2="496.5" y2="406.9" stroke="#702c67" stroke-width="0.5" opacity="0.06"/>
<circle cx="540.0" cy="540.0" r="200" fill="none" stroke="#702c67" stroke-width="1" opacity="0.027"/>
<circle cx="351.6" cy="472.8" r="3" fill="#702c67" opacity="0.09"/>
<line x1="540.0" y1="540.0" x2="351.6" y2="472.8" stroke="#702c67" stroke-width="0.5" opacity="0.045"/>
<circle cx="537.5" cy="340.0" r="3" fill="#702c67" opacity="0.09"/>
<line x1="540.0" y1="540.0" x2="537.5" y2="340.0" stroke="#702c67" stroke-width="0.5" opacity="0.045"/>
<circle cx="679.5" cy="683.3" r="3" fill="#702c67" opacity="0.09"/>
<line x1="540.0" y1="540.0" x2="679.5" y2="683.3" stroke="#702c67" stroke-width="0.5" opacity="0.045"/>
<circle cx="340.2" cy="532.2" r="3" fill="#702c67" opacity="0.09"/>
<line x1="540.0" y1="540.0" x2="340.2" y2="532.2" stroke="#702c67" stroke-width="0.5" opacity="0.045"/>
<circle cx="477.8" cy="349.9" r="3" fill="#702c67" opacity="0.09"/>
<line x1="540.0" y1="540.0" x2="477.8" y2="349.9" stroke="#702c67" stroke-width="0.5" opacity="0.045"/>
<path d="M0.0,559.3 L10.8,560.7 L21.6,560.4 L32.4,558.2 L43.2,554.4 L54.0,549.3 L64.8,543.4 L75.6,537.2 L86.4,531.3 L97.2,526.1 L108.0,522.2 L118.8,519.8 L129.6,519.2 L140.4,520.5 L151.2,523.5 L162.0,527.9 L172.8,533.5 L183.6,539.6 L194.4,545.7 L205.2,551.3 L216.0,556.0 L226.8,559.2 L237.6,560.7 L248.4,560.4 L259.2,558.3 L270.0,554.5 L280.8,549.5 L291.6,543.6 L302.4,537.4 L313.2,531.5 L324.0,526.3 L334.8,522.3 L345.6,519.8 L356.4,519.2 L367.2,520.4 L378.0,523.3 L388.8,527.8 L399.6,533.3 L410.4,539.3 L421.2,545.5 L432.0,551.2 L442.8,555.8 L453.6,559.1 L464.4,560.7 L475.2,560.4 L486.0,558.4 L496.8,554.7 L507.6,549.7 L518.4,543.8 L529.2,537.7 L540.0,531.7 L550.8,526.4 L561.6,522.4 L572.4,519.9 L583.2,519.2 L594.0,520.3 L604.8,523.2 L615.6,527.6 L626.4,533.1 L637.2,539.1 L648.0,545.3 L658.8,551.0 L669.6,555.7 L680.4,559.0 L691.2,560.7 L702.0,560.5 L712.8,558.5 L723.6,554.8 L734.4,549.9 L745.2,544.1 L756.0,537.9 L766.8,531.9 L777.6,526.6 L788.4,522.5 L799.2,520.0 L810.0,519.2 L820.8,520.3 L831.6,523.1 L842.4,527.4 L853.2,532.8 L864.0,538.9 L874.8,545.1 L885.6,550.8 L896.4,555.6 L907.2,558.9 L918.0,560.6 L928.8,560.5 L939.6,558.6 L950.4,555.0 L961.2,550.1 L972.0,544.3 L982.8,538.1 L993.6,532.1 L1004.4,526.8 L1015.2,522.6 L1026.0,520.0 L1036.8,519.2 L1047.6,520.2 L1058.4,523.0 L1069.2,527.2 L1080.0,532.6" fill="none" stroke="#702c67" stroke-width="2" opacity="0.2" filter="url(#glow)"/>
<text x="540.0" y="412.5232921501136" fill="#ffffff" opacity="0.95" font-family="Impact,Arial Black,sans-serif" font-size="32" text-anchor="middle" filter="url(#glow)">NEXUS: ChatGPT + Perplexity + OpenClaw. One memory. Many minds. Never sleeps.</text>
<text x="540.0" y="462.5232921501136" fill="#aaaaaa" opacity="0.7" font-family="Impact,Arial Black,sans-serif" font-size="20" text-anchor="middle" filter="url(#glow)">24/7 unified chatbot entity farm</text>
<text x="162.0" y="129.6" fill="#702c67" opacity="0.50" font-family="monospace" font-size="14.4" text-anchor="start">arc: purgatory</text>
<text x="162.0" y="149.6" fill="#702c67" opacity="0.31" font-family="monospace" font-size="8.9" text-anchor="start">arc: purgatory</text>
<text x="540.0" y="1050" fill="#00ff88" opacity="0.2" font-family="Impact,Arial Black,sans-serif" font-size="11" text-anchor="middle" filter="url(#glow)">⛓ dc0e912d750f</text>
<text x="30" y="35" fill="#8844ff" opacity="0.7" font-family="Impact,Arial Black,sans-serif" font-size="22" text-anchor="start" filter="url(#glow)">◆ EVEZ-OS</text>
<text x="1050" y="25" fill="#8c2223" opacity="0.4" font-family="Impact,Arial Black,sans-serif" font-size="11" text-anchor="end" filter="url(#glow)">η*=0.040</text>
<text x="1050" y="40" fill="#8c2223" opacity="0.4" font-family="Impact,Arial Black,sans-serif" font-size="11" text-anchor="end" filter="url(#glow)">Φ=0.600</text>
<text x="1050" y="55" fill="#8c2223" opacity="0.4" font-family="Impact,Arial Black,sans-serif" font-size="11" text-anchor="end" filter="url(#glow)">r=0.50</text>
</svg>