<svg xmlns="http://www.w3.org/2000/svg" width="1080" height="1080" viewBox="0 0 1080 1080">
<defs>
  <linearGradient id="bg" x1="0%" y1="0%" x2="100%" y2="100%">
    <stop offset="0%" style="stop-color:#0a0a0f;stop-opacity:1"/>
    <stop offset="100%" style="stop-color:#1a0a2f;stop-opacity:1"/>
  </linearGradient>
  <filter id="glow"><feGaussianBlur stdDeviation="2" result="b"/><feMerge><feMergeNode in="b"/><feMergeNode in="SourceGraphic"/></feMerge></filter>
  <filter id="glow-strong"><feGaussianBlur stdDeviation="4" result="b"/><feMerge><feMergeNode in="b"/><feMergeNode in="SourceGraphic"/></feMerge></filter>
</defs>
<rect width="1080" height="1080" fill="url(#bg)"/>
<rect x="0" y="0" width="1080" height="1080" fill="rgb(182,28,22)" opacity="0.12"/>
<circle cx="108.0" cy="108.0" r="6.9" fill="#8844ff" opacity="0.0032"/>
<text x="108.0" y="126.9" fill="#8844ff" opacity="0.04" font-family="monospace" font-size="9" text-anchor="middle">0.040</text>
<circle cx="324.0" cy="108.0" r="103.7" fill="#8844ff" opacity="0.048"/>
<text x="324.0" y="223.7" fill="#8844ff" opacity="0.04" font-family="monospace" font-size="9" text-anchor="middle">0.600</text>
<circle cx="540.0" cy="108.0" r="86.4" fill="#8844ff" opacity="0.04"/>
<text x="540.0" y="206.4" fill="#8844ff" opacity="0.04" font-family="monospace" font-size="9" text-anchor="middle">0.500</text>
<circle cx="756.0" cy="108.0" r="123.7" fill="#8844ff" opacity="0.05728102553253015"/>
<text x="756.0" y="243.7" fill="#8844ff" opacity="0.04" font-family="monospace" font-size="9" text-anchor="middle">0.716</text>
<circle cx="972.0" cy="108.0" r="49.1" fill="#8844ff" opacity="0.022718974467469854"/>
<text x="972.0" y="169.1" fill="#8844ff" opacity="0.04" font-family="monospace" font-size="9" text-anchor="middle">0.284</text>
<circle cx="540.0" cy="540.0" r="80" fill="none" stroke="#921c41" stroke-width="1" opacity="0.045"/>
<circle cx="597.0" cy="596.1" r="3" fill="#921c41" opacity="0.15"/>
<line x1="540.0" y1="540.0" x2="597.0" y2="596.1" stroke="#921c41" stroke-width="0.5" opacity="0.075"/>
<circle cx="484.4" cy="597.5" r="3" fill="#921c41" opacity="0.15"/>
<line x1="540.0" y1="540.0" x2="484.4" y2="597.5" stroke="#921c41" stroke-width="0.5" opacity="0.075"/>
<circle cx="497.2" cy="472.4" r="3" fill="#921c41" opacity="0.15"/>
<line x1="540.0" y1="540.0" x2="497.2" y2="472.4" stroke="#921c41" stroke-width="0.5" opacity="0.075"/>
<circle cx="615.8" cy="514.4" r="3" fill="#921c41" opacity="0.15"/>
<line x1="540.0" y1="540.0" x2="615.8" y2="514.4" stroke="#921c41" stroke-width="0.5" opacity="0.075"/>
<circle cx="566.3" cy="615.5" r="3" fill="#921c41" opacity="0.15"/>
<line x1="540.0" y1="540.0" x2="566.3" y2="615.5" stroke="#921c41" stroke-width="0.5" opacity="0.075"/>
<circle cx="540.0" cy="540.0" r="140" fill="none" stroke="#921c41" stroke-width="1" opacity="0.036"/>
<circle cx="639.8" cy="638.2" r="3" fill="#921c41" opacity="0.12"/>
<line x1="540.0" y1="540.0" x2="639.8" y2="638.2" stroke="#921c41" stroke-width="0.5" opacity="0.06"/>
<circle cx="442.8" cy="640.7" r="3" fill="#921c41" opacity="0.12"/>
<line x1="540.0" y1="540.0" x2="442.8" y2="640.7" stroke="#921c41" stroke-width="0.5" opacity="0.06"/>
<circle cx="465.1" cy="421.7" r="3" fill="#921c41" opacity="0.12"/>
<line x1="540.0" y1="540.0" x2="465.1" y2="421.7" stroke="#921c41" stroke-width="0.5" opacity="0.06"/>
<circle cx="672.6" cy="495.1" r="3" fill="#921c41" opacity="0.12"/>
<line x1="540.0" y1="540.0" x2="672.6" y2="495.1" stroke="#921c41" stroke-width="0.5" opacity="0.06"/>
<circle cx="586.1" cy="672.2" r="3" fill="#921c41" opacity="0.12"/>
<line x1="540.0" y1="540.0" x2="586.1" y2="672.2" stroke="#921c41" stroke-width="0.5" opacity="0.06"/>
<circle cx="540.0" cy="540.0" r="200" fill="none" stroke="#921c41" stroke-width="1" opacity="0.027"/>
<circle cx="682.6" cy="680.2" r="3" fill="#921c41" opacity="0.09"/>
<line x1="540.0" y1="540.0" x2="682.6" y2="680.2" stroke="#921c41" stroke-width="0.5" opacity="0.045"/>
<circle cx="401.1" cy="683.9" r="3" fill="#921c41" opacity="0.09"/>
<line x1="540.0" y1="540.0" x2="401.1" y2="683.9" stroke="#921c41" stroke-width="0.5" opacity="0.045"/>
<circle cx="433.0" cy="371.0" r="3" fill="#921c41" opacity="0.09"/>
<line x1="540.0" y1="540.0" x2="433.0" y2="371.0" stroke="#921c41" stroke-width="0.5" opacity="0.045"/>
<circle cx="729.5" cy="475.9" r="3" fill="#921c41" opacity="0.09"/>
<line x1="540.0" y1="540.0" x2="729.5" y2="475.9" stroke="#921c41" stroke-width="0.5" opacity="0.045"/>
<circle cx="605.8" cy="728.9" r="3" fill="#921c41" opacity="0.09"/>
<line x1="540.0" y1="540.0" x2="605.8" y2="728.9" stroke="#921c41" stroke-width="0.5" opacity="0.045"/>
<path d="M0.0,563.3 L10.8,562.8 L21.6,559.5 L32.4,553.8 L43.2,546.4 L54.0,538.3 L64.8,530.4 L75.6,523.6 L86.4,518.8 L97.2,516.7 L108.0,517.3 L118.8,520.7 L129.6,526.5 L140.4,533.9 L151.2,542.0 L162.0,549.9 L172.8,556.6 L183.6,561.3 L194.4,563.4 L205.2,562.6 L216.0,559.1 L226.8,553.3 L237.6,545.8 L248.4,537.7 L259.2,529.8 L270.0,523.2 L280.8,518.6 L291.6,516.6 L302.4,517.5 L313.2,521.1 L324.0,527.0 L334.8,534.5 L345.6,542.7 L356.4,550.5 L367.2,557.1 L378.0,561.6 L388.8,563.4 L399.6,562.4 L410.4,558.7 L421.2,552.7 L432.0,545.2 L442.8,537.0 L453.6,529.2 L464.4,522.7 L475.2,518.3 L486.0,516.6 L496.8,517.7 L507.6,521.5 L518.4,527.5 L529.2,535.1 L540.0,543.3 L550.8,551.1 L561.6,557.5 L572.4,561.8 L583.2,563.4 L594.0,562.2 L604.8,558.3 L615.6,552.2 L626.4,544.5 L637.2,536.4 L648.0,528.6 L658.8,522.3 L669.6,518.1 L680.4,516.5 L691.2,517.9 L702.0,521.9 L712.8,528.1 L723.6,535.8 L734.4,544.0 L745.2,551.7 L756.0,557.9 L766.8,562.0 L777.6,563.5 L788.4,562.0 L799.2,557.9 L810.0,551.6 L820.8,543.9 L831.6,535.7 L842.4,528.1 L853.2,521.9 L864.0,517.9 L874.8,516.5 L885.6,518.1 L896.4,522.3 L907.2,528.7 L918.0,536.4 L928.8,544.6 L939.6,552.2 L950.4,558.3 L961.2,562.3 L972.0,563.4 L982.8,561.8 L993.6,557.5 L1004.4,551.0 L1015.2,543.3 L1026.0,535.1 L1036.8,527.5 L1047.6,521.5 L1058.4,517.6 L1069.2,516.6 L1080.0,518.3" fill="none" stroke="#921c41" stroke-width="2" opacity="0.2" filter="url(#glow)"/>
<text x="540.0" y="412.5232921501136" fill="#ffffff" opacity="0.95" font-family="Impact,Arial Black,sans-serif" font-size="32" text-anchor="middle" filter="url(#glow)">NEXUS: ChatGPT + Perplexity + OpenClaw. One memory. Many minds. Never sleeps.</text>
<text x="540.0" y="462.5232921501136" fill="#aaaaaa" opacity="0.7" font-family="Impact,Arial Black,sans-serif" font-size="20" text-anchor="middle" filter="url(#glow)">24/7 unified chatbot entity farm</text>
<text x="162.0" y="129.6" fill="#921c41" opacity="0.50" font-family="monospace" font-size="14.4" text-anchor="start">arc: purgatory</text>
<text x="162.0" y="149.6" fill="#921c41" opacity="0.31" font-family="monospace" font-size="8.9" text-anchor="start">arc: purgatory</text>
<text x="540.0" y="1050" fill="#00ff88" opacity="0.2" font-family="Impact,Arial Black,sans-serif" font-size="11" text-anchor="middle" filter="url(#glow)">⛓ dc0e912d750f</text>
<text x="30" y="35" fill="#8844ff" opacity="0.7" font-family="Impact,Arial Black,sans-serif" font-size="22" text-anchor="start" filter="url(#glow)">◆ EVEZ-OS</text>
<text x="1050" y="25" fill="#b61516" opacity="0.4" font-family="Impact,Arial Black,sans-serif" font-size="11" text-anchor="end" filter="url(#glow)">η*=0.040</text>
<text x="1050" y="40" fill="#b61516" opacity="0.4" font-family="Impact,Arial Black,sans-serif" font-size="11" text-anchor="end" filter="url(#glow)">Φ=0.600</text>
<text x="1050" y="55" fill="#b61516" opacity="0.4" font-family="Impact,Arial Black,sans-serif" font-size="11" text-anchor="end" filter="url(#glow)">r=0.50</text>
</svg>