<svg xmlns="http://www.w3.org/2000/svg" width="1080" height="1080" viewBox="0 0 1080 1080">
<defs>
  <linearGradient id="bg" x1="0%" y1="0%" x2="100%" y2="100%">
    <stop offset="0%" style="stop-color:#0a0a0f;stop-opacity:1"/>
    <stop offset="100%" style="stop-color:#1a0a2f;stop-opacity:1"/>
  </linearGradient>
  <filter id="glow"><feGaussianBlur stdDeviation="2" result="b"/><feMerge><feMergeNode in="b"/><feMergeNode in="SourceGraphic"/></feMerge></filter>
  <filter id="glow-strong"><feGaussianBlur stdDeviation="4" result="b"/><feMerge><feMergeNode in="b"/><feMergeNode in="SourceGraphic"/></feMerge></filter>
</defs>
<rect width="1080" height="1080" fill="url(#bg)"/>
<rect x="0" y="0" width="1080" height="1080" fill="rgb(124,51,40)" opacity="0.12"/>
<circle cx="108.0" cy="108.0" r="6.9" fill="#8844ff" opacity="0.0032"/>
<text x="108.0" y="126.9" fill="#8844ff" opacity="0.04" font-family="monospace" font-size="9" text-anchor="middle">0.040</text>
<circle cx="324.0" cy="108.0" r="103.7" fill="#8844ff" opacity="0.048"/>
<text x="324.0" y="223.7" fill="#8844ff" opacity="0.04" font-family="monospace" font-size="9" text-anchor="middle">0.600</text>
<circle cx="540.0" cy="108.0" r="86.4" fill="#8844ff" opacity="0.04"/>
<text x="540.0" y="206.4" fill="#8844ff" opacity="0.04" font-family="monospace" font-size="9" text-anchor="middle">0.500</text>
<circle cx="756.0" cy="108.0" r="84.6" fill="#8844ff" opacity="0.03916954574588443"/>
<text x="756.0" y="204.6" fill="#8844ff" opacity="0.04" font-family="monospace" font-size="9" text-anchor="middle">0.490</text>
<circle cx="972.0" cy="108.0" r="88.2" fill="#8844ff" opacity="0.04083045425411557"/>
<text x="972.0" y="208.2" fill="#8844ff" opacity="0.04" font-family="monospace" font-size="9" text-anchor="middle">0.510</text>
<circle cx="540.0" cy="540.0" r="80" fill="none" stroke="#633375" stroke-width="1" opacity="0.045"/>
<circle cx="576.3" cy="468.7" r="3" fill="#633375" opacity="0.15"/>
<line x1="540.0" y1="540.0" x2="576.3" y2="468.7" stroke="#633375" stroke-width="0.5" opacity="0.075"/>
<circle cx="619.1" cy="528.3" r="3" fill="#633375" opacity="0.15"/>
<line x1="540.0" y1="540.0" x2="619.1" y2="528.3" stroke="#633375" stroke-width="0.5" opacity="0.075"/>
<circle cx="473.2" cy="584.0" r="3" fill="#633375" opacity="0.15"/>
<line x1="540.0" y1="540.0" x2="473.2" y2="584.0" stroke="#633375" stroke-width="0.5" opacity="0.075"/>
<circle cx="582.0" cy="471.9" r="3" fill="#633375" opacity="0.15"/>
<line x1="540.0" y1="540.0" x2="582.0" y2="471.9" stroke="#633375" stroke-width="0.5" opacity="0.075"/>
<circle cx="619.8" cy="534.8" r="3" fill="#633375" opacity="0.15"/>
<line x1="540.0" y1="540.0" x2="619.8" y2="534.8" stroke="#633375" stroke-width="0.5" opacity="0.075"/>
<circle cx="540.0" cy="540.0" r="140" fill="none" stroke="#633375" stroke-width="1" opacity="0.036"/>
<circle cx="603.5" cy="415.2" r="3" fill="#633375" opacity="0.12"/>
<line x1="540.0" y1="540.0" x2="603.5" y2="415.2" stroke="#633375" stroke-width="0.5" opacity="0.06"/>
<circle cx="678.5" cy="519.5" r="3" fill="#633375" opacity="0.12"/>
<line x1="540.0" y1="540.0" x2="678.5" y2="519.5" stroke="#633375" stroke-width="0.5" opacity="0.06"/>
<circle cx="423.1" cy="617.0" r="3" fill="#633375" opacity="0.12"/>
<line x1="540.0" y1="540.0" x2="423.1" y2="617.0" stroke="#633375" stroke-width="0.5" opacity="0.06"/>
<circle cx="613.5" cy="420.9" r="3" fill="#633375" opacity="0.12"/>
<line x1="540.0" y1="540.0" x2="613.5" y2="420.9" stroke="#633375" stroke-width="0.5" opacity="0.06"/>
<circle cx="679.7" cy="530.9" r="3" fill="#633375" opacity="0.12"/>
<line x1="540.0" y1="540.0" x2="679.7" y2="530.9" stroke="#633375" stroke-width="0.5" opacity="0.06"/>
<circle cx="540.0" cy="540.0" r="200" fill="none" stroke="#633375" stroke-width="1" opacity="0.027"/>
<circle cx="630.8" cy="361.8" r="3" fill="#633375" opacity="0.09"/>
<line x1="540.0" y1="540.0" x2="630.8" y2="361.8" stroke="#633375" stroke-width="0.5" opacity="0.045"/>
<circle cx="737.8" cy="510.6" r="3" fill="#633375" opacity="0.09"/>
<line x1="540.0" y1="540.0" x2="737.8" y2="510.6" stroke="#633375" stroke-width="0.5" opacity="0.045"/>
<circle cx="373.0" cy="650.0" r="3" fill="#633375" opacity="0.09"/>
<line x1="540.0" y1="540.0" x2="373.0" y2="650.0" stroke="#633375" stroke-width="0.5" opacity="0.045"/>
<circle cx="645.1" cy="369.8" r="3" fill="#633375" opacity="0.09"/>
<line x1="540.0" y1="540.0" x2="645.1" y2="369.8" stroke="#633375" stroke-width="0.5" opacity="0.045"/>
<circle cx="739.6" cy="527.0" r="3" fill="#633375" opacity="0.09"/>
<line x1="540.0" y1="540.0" x2="739.6" y2="527.0" stroke="#633375" stroke-width="0.5" opacity="0.045"/>
<path d="M0.0,522.7 L10.8,520.7 L21.6,520.2 L32.4,521.2 L43.2,523.7 L54.0,527.4 L64.8,532.1 L75.6,537.4 L86.4,543.0 L97.2,548.3 L108.0,552.9 L118.8,556.6 L129.6,558.9 L140.4,559.8 L151.2,559.2 L162.0,557.1 L172.8,553.6 L183.6,549.1 L194.4,543.9 L205.2,538.4 L216.0,533.0 L226.8,528.1 L237.6,524.2 L248.4,521.5 L259.2,520.2 L270.0,520.5 L280.8,522.3 L291.6,525.5 L302.4,529.7 L313.2,534.8 L324.0,540.3 L334.8,545.8 L345.6,550.8 L356.4,555.0 L367.2,558.0 L378.0,559.6 L388.8,559.7 L399.6,558.3 L410.4,555.4 L421.2,551.4 L432.0,546.5 L442.8,541.0 L453.6,535.5 L464.4,530.4 L475.2,526.0 L486.0,522.6 L496.8,520.7 L507.6,520.2 L518.4,521.3 L529.2,523.8 L540.0,527.6 L550.8,532.3 L561.6,537.6 L572.4,543.2 L583.2,548.4 L594.0,553.1 L604.8,556.7 L615.6,559.0 L626.4,559.8 L637.2,559.1 L648.0,557.0 L658.8,553.5 L669.6,548.9 L680.4,543.7 L691.2,538.2 L702.0,532.8 L712.8,528.0 L723.6,524.1 L734.4,521.4 L745.2,520.2 L756.0,520.6 L766.8,522.4 L777.6,525.6 L788.4,529.9 L799.2,535.0 L810.0,540.5 L820.8,546.0 L831.6,550.9 L842.4,555.1 L853.2,558.1 L864.0,559.6 L874.8,559.7 L885.6,558.2 L896.4,555.3 L907.2,551.2 L918.0,546.3 L928.8,540.8 L939.6,535.3 L950.4,530.2 L961.2,525.8 L972.0,522.5 L982.8,520.6 L993.6,520.2 L1004.4,521.3 L1015.2,523.9 L1026.0,527.7 L1036.8,532.5 L1047.6,537.8 L1058.4,543.4 L1069.2,548.6 L1080.0,553.2" fill="none" stroke="#633375" stroke-width="2" opacity="0.2" filter="url(#glow)"/>
<text x="540.0" y="412.5232921501136" fill="#ffffff" opacity="0.95" font-family="Impact,Arial Black,sans-serif" font-size="32" text-anchor="middle" filter="url(#glow)">NEXUS: ChatGPT + Perplexity + OpenClaw. One memory. Many minds. Never sleeps.</text>
<text x="540.0" y="462.5232921501136" fill="#aaaaaa" opacity="0.7" font-family="Impact,Arial Black,sans-serif" font-size="20" text-anchor="middle" filter="url(#glow)">24/7 unified chatbot entity farm</text>
<text x="162.0" y="129.6" fill="#633375" opacity="0.50" font-family="monospace" font-size="14.4" text-anchor="start">arc: purgatory</text>
<text x="162.0" y="149.6" fill="#633375" opacity="0.31" font-family="monospace" font-size="8.9" text-anchor="start">arc: purgatory</text>
<text x="540.0" y="1050" fill="#00ff88" opacity="0.2" font-family="Impact,Arial Black,sans-serif" font-size="11" text-anchor="middle" filter="url(#glow)">⛓ dc0e912d750f</text>
<text x="30" y="35" fill="#8844ff" opacity="0.7" font-family="Impact,Arial Black,sans-serif" font-size="22" text-anchor="start" filter="url(#glow)">◆ EVEZ-OS</text>
<text x="1050" y="25" fill="#7c2728" opacity="0.4" font-family="Impact,Arial Black,sans-serif" font-size="11" text-anchor="end" filter="url(#glow)">η*=0.040</text>
<text x="1050" y="40" fill="#7c2728" opacity="0.4" font-family="Impact,Arial Black,sans-serif" font-size="11" text-anchor="end" filter="url(#glow)">Φ=0.600</text>
<text x="1050" y="55" fill="#7c2728" opacity="0.4" font-family="Impact,Arial Black,sans-serif" font-size="11" text-anchor="end" filter="url(#glow)">r=0.50</text>
</svg>