<svg xmlns="http://www.w3.org/2000/svg" width="1080" height="1080" viewBox="0 0 1080 1080">
<defs>
  <linearGradient id="bg" x1="0%" y1="0%" x2="100%" y2="100%">
    <stop offset="0%" style="stop-color:#0a0a0f;stop-opacity:1"/>
    <stop offset="100%" style="stop-color:#1a0a2f;stop-opacity:1"/>
  </linearGradient>
  <filter id="glow"><feGaussianBlur stdDeviation="2" result="b"/><feMerge><feMergeNode in="b"/><feMergeNode in="SourceGraphic"/></feMerge></filter>
  <filter id="glow-strong"><feGaussianBlur stdDeviation="4" result="b"/><feMerge><feMergeNode in="b"/><feMergeNode in="SourceGraphic"/></feMerge></filter>
</defs>
<rect width="1080" height="1080" fill="url(#bg)"/>
<rect x="0" y="0" width="1080" height="1080" fill="rgb(117,53,43)" opacity="0.12"/>
<circle cx="108.0" cy="108.0" r="6.9" fill="#8844ff" opacity="0.0032"/>
<text x="108.0" y="126.9" fill="#8844ff" opacity="0.04" font-family="monospace" font-size="9" text-anchor="middle">0.040</text>
<circle cx="324.0" cy="108.0" r="103.7" fill="#8844ff" opacity="0.048"/>
<text x="324.0" y="223.7" fill="#8844ff" opacity="0.04" font-family="monospace" font-size="9" text-anchor="middle">0.600</text>
<circle cx="540.0" cy="108.0" r="86.4" fill="#8844ff" opacity="0.04"/>
<text x="540.0" y="206.4" fill="#8844ff" opacity="0.04" font-family="monospace" font-size="9" text-anchor="middle">0.500</text>
<circle cx="756.0" cy="108.0" r="79.9" fill="#8844ff" opacity="0.03699772299789641"/>
<text x="756.0" y="199.9" fill="#8844ff" opacity="0.04" font-family="monospace" font-size="9" text-anchor="middle">0.462</text>
<circle cx="972.0" cy="108.0" r="92.9" fill="#8844ff" opacity="0.043002277002103594"/>
<text x="972.0" y="212.9" fill="#8844ff" opacity="0.04" font-family="monospace" font-size="9" text-anchor="middle">0.538</text>
<circle cx="540.0" cy="540.0" r="80" fill="none" stroke="#5e357b" stroke-width="1" opacity="0.045"/>
<circle cx="568.0" cy="615.0" r="3" fill="#5e357b" opacity="0.15"/>
<line x1="540.0" y1="540.0" x2="568.0" y2="615.0" stroke="#5e357b" stroke-width="0.5" opacity="0.075"/>
<circle cx="514.7" cy="615.9" r="3" fill="#5e357b" opacity="0.15"/>
<line x1="540.0" y1="540.0" x2="514.7" y2="615.9" stroke="#5e357b" stroke-width="0.5" opacity="0.075"/>
<circle cx="555.4" cy="461.5" r="3" fill="#5e357b" opacity="0.15"/>
<line x1="540.0" y1="540.0" x2="555.4" y2="461.5" stroke="#5e357b" stroke-width="0.5" opacity="0.075"/>
<circle cx="534.7" cy="619.8" r="3" fill="#5e357b" opacity="0.15"/>
<line x1="540.0" y1="540.0" x2="534.7" y2="619.8" stroke="#5e357b" stroke-width="0.5" opacity="0.075"/>
<circle cx="485.8" cy="598.8" r="3" fill="#5e357b" opacity="0.15"/>
<line x1="540.0" y1="540.0" x2="485.8" y2="598.8" stroke="#5e357b" stroke-width="0.5" opacity="0.075"/>
<circle cx="540.0" cy="540.0" r="140" fill="none" stroke="#5e357b" stroke-width="1" opacity="0.036"/>
<circle cx="588.9" cy="671.2" r="3" fill="#5e357b" opacity="0.12"/>
<line x1="540.0" y1="540.0" x2="588.9" y2="671.2" stroke="#5e357b" stroke-width="0.5" opacity="0.06"/>
<circle cx="495.7" cy="672.8" r="3" fill="#5e357b" opacity="0.12"/>
<line x1="540.0" y1="540.0" x2="495.7" y2="672.8" stroke="#5e357b" stroke-width="0.5" opacity="0.06"/>
<circle cx="567.0" cy="402.6" r="3" fill="#5e357b" opacity="0.12"/>
<line x1="540.0" y1="540.0" x2="567.0" y2="402.6" stroke="#5e357b" stroke-width="0.5" opacity="0.06"/>
<circle cx="530.7" cy="679.7" r="3" fill="#5e357b" opacity="0.12"/>
<line x1="540.0" y1="540.0" x2="530.7" y2="679.7" stroke="#5e357b" stroke-width="0.5" opacity="0.06"/>
<circle cx="445.1" cy="642.9" r="3" fill="#5e357b" opacity="0.12"/>
<line x1="540.0" y1="540.0" x2="445.1" y2="642.9" stroke="#5e357b" stroke-width="0.5" opacity="0.06"/>
<circle cx="540.0" cy="540.0" r="200" fill="none" stroke="#5e357b" stroke-width="1" opacity="0.027"/>
<circle cx="609.9" cy="727.4" r="3" fill="#5e357b" opacity="0.09"/>
<line x1="540.0" y1="540.0" x2="609.9" y2="727.4" stroke="#5e357b" stroke-width="0.5" opacity="0.045"/>
<circle cx="476.8" cy="729.7" r="3" fill="#5e357b" opacity="0.09"/>
<line x1="540.0" y1="540.0" x2="476.8" y2="729.7" stroke="#5e357b" stroke-width="0.5" opacity="0.045"/>
<circle cx="578.5" cy="343.7" r="3" fill="#5e357b" opacity="0.09"/>
<line x1="540.0" y1="540.0" x2="578.5" y2="343.7" stroke="#5e357b" stroke-width="0.5" opacity="0.045"/>
<circle cx="526.8" cy="739.6" r="3" fill="#5e357b" opacity="0.09"/>
<line x1="540.0" y1="540.0" x2="526.8" y2="739.6" stroke="#5e357b" stroke-width="0.5" opacity="0.045"/>
<circle cx="404.4" cy="687.0" r="3" fill="#5e357b" opacity="0.09"/>
<line x1="540.0" y1="540.0" x2="404.4" y2="687.0" stroke="#5e357b" stroke-width="0.5" opacity="0.045"/>
<path d="M0.0,556.6 L10.8,553.4 L21.6,549.1 L32.4,544.2 L43.2,539.0 L54.0,533.8 L64.8,529.1 L75.6,525.2 L86.4,522.4 L97.2,520.9 L108.0,520.7 L118.8,522.0 L129.6,524.5 L140.4,528.3 L151.2,532.8 L162.0,537.9 L172.8,543.1 L183.6,548.1 L194.4,552.6 L205.2,556.1 L216.0,558.4 L226.8,559.4 L237.6,558.9 L248.4,557.1 L259.2,554.1 L270.0,550.0 L280.8,545.2 L291.6,540.0 L302.4,534.8 L313.2,530.0 L324.0,525.9 L334.8,522.8 L345.6,521.0 L356.4,520.6 L367.2,521.6 L378.0,524.0 L388.8,527.5 L399.6,531.9 L410.4,536.9 L421.2,542.2 L432.0,547.2 L442.8,551.8 L453.6,555.5 L464.4,558.0 L475.2,559.3 L486.0,559.1 L496.8,557.6 L507.6,554.7 L518.4,550.8 L529.2,546.1 L540.0,541.0 L550.8,535.7 L561.6,530.8 L572.4,526.6 L583.2,523.3 L594.0,521.3 L604.8,520.6 L615.6,521.3 L626.4,523.4 L637.2,526.7 L648.0,531.0 L658.8,535.9 L669.6,541.2 L680.4,546.3 L691.2,551.0 L702.0,554.9 L712.8,557.7 L723.6,559.2 L734.4,559.3 L745.2,558.0 L756.0,555.4 L766.8,551.6 L777.6,547.1 L788.4,542.0 L799.2,536.7 L810.0,531.7 L820.8,527.3 L831.6,523.9 L842.4,521.6 L853.2,520.6 L864.0,521.1 L874.8,522.9 L885.6,526.0 L896.4,530.1 L907.2,535.0 L918.0,540.2 L928.8,545.4 L939.6,550.1 L950.4,554.2 L961.2,557.2 L972.0,559.0 L982.8,559.4 L993.6,558.3 L1004.4,556.0 L1015.2,552.4 L1026.0,548.0 L1036.8,542.9 L1047.6,537.7 L1058.4,532.6 L1069.2,528.1 L1080.0,524.4" fill="none" stroke="#5e357b" stroke-width="2" opacity="0.2" filter="url(#glow)"/>
<text x="540.0" y="412.5232921501136" fill="#ffffff" opacity="0.95" font-family="Impact,Arial Black,sans-serif" font-size="32" text-anchor="middle" filter="url(#glow)">NEXUS: ChatGPT + Perplexity + OpenClaw. One memory. Many minds. Never sleeps.</text>
<text x="540.0" y="462.5232921501136" fill="#aaaaaa" opacity="0.7" font-family="Impact,Arial Black,sans-serif" font-size="20" text-anchor="middle" filter="url(#glow)">24/7 unified chatbot entity farm</text>
<text x="162.0" y="129.6" fill="#5e357b" opacity="0.50" font-family="monospace" font-size="14.4" text-anchor="start">arc: purgatory</text>
<text x="162.0" y="149.6" fill="#5e357b" opacity="0.31" font-family="monospace" font-size="8.9" text-anchor="start">arc: purgatory</text>
<text x="540.0" y="1050" fill="#00ff88" opacity="0.2" font-family="Impact,Arial Black,sans-serif" font-size="11" text-anchor="middle" filter="url(#glow)">⛓ dc0e912d750f</text>
<text x="30" y="35" fill="#8844ff" opacity="0.7" font-family="Impact,Arial Black,sans-serif" font-size="22" text-anchor="start" filter="url(#glow)">◆ EVEZ-OS</text>
<text x="1050" y="25" fill="#75292b" opacity="0.4" font-family="Impact,Arial Black,sans-serif" font-size="11" text-anchor="end" filter="url(#glow)">η*=0.040</text>
<text x="1050" y="40" fill="#75292b" opacity="0.4" font-family="Impact,Arial Black,sans-serif" font-size="11" text-anchor="end" filter="url(#glow)">Φ=0.600</text>
<text x="1050" y="55" fill="#75292b" opacity="0.4" font-family="Impact,Arial Black,sans-serif" font-size="11" text-anchor="end" filter="url(#glow)">r=0.50</text>
</svg>