<svg xmlns="http://www.w3.org/2000/svg" width="1080" height="1080" viewBox="0 0 1080 1080">
<defs>
  <linearGradient id="bg" x1="0%" y1="0%" x2="100%" y2="100%">
    <stop offset="0%" style="stop-color:#0a0a0f;stop-opacity:1"/>
    <stop offset="100%" style="stop-color:#1a0a2f;stop-opacity:1"/>
  </linearGradient>
  <filter id="glow"><feGaussianBlur stdDeviation="2" result="b"/><feMerge><feMergeNode in="b"/><feMergeNode in="SourceGraphic"/></feMerge></filter>
  <filter id="glow-strong"><feGaussianBlur stdDeviation="4" result="b"/><feMerge><feMergeNode in="b"/><feMergeNode in="SourceGraphic"/></feMerge></filter>
</defs>
<rect width="1080" height="1080" fill="url(#bg)"/>
<rect x="0" y="0" width="1080" height="1080" fill="rgb(117,53,43)" opacity="0.12"/>
<circle cx="108.0" cy="108.0" r="6.9" fill="#8844ff" opacity="0.0032"/>
<text x="108.0" y="126.9" fill="#8844ff" opacity="0.04" font-family="monospace" font-size="9" text-anchor="middle">0.040</text>
<circle cx="324.0" cy="108.0" r="103.7" fill="#8844ff" opacity="0.048"/>
<text x="324.0" y="223.7" fill="#8844ff" opacity="0.04" font-family="monospace" font-size="9" text-anchor="middle">0.600</text>
<circle cx="540.0" cy="108.0" r="86.4" fill="#8844ff" opacity="0.04"/>
<text x="540.0" y="206.4" fill="#8844ff" opacity="0.04" font-family="monospace" font-size="9" text-anchor="middle">0.500</text>
<circle cx="756.0" cy="108.0" r="79.8" fill="#8844ff" opacity="0.03694484730881568"/>
<text x="756.0" y="199.8" fill="#8844ff" opacity="0.04" font-family="monospace" font-size="9" text-anchor="middle">0.462</text>
<circle cx="972.0" cy="108.0" r="93.0" fill="#8844ff" opacity="0.043055152691184324"/>
<text x="972.0" y="213.0" fill="#8844ff" opacity="0.04" font-family="monospace" font-size="9" text-anchor="middle">0.538</text>
<circle cx="540.0" cy="540.0" r="80" fill="none" stroke="#5e357b" stroke-width="1" opacity="0.045"/>
<circle cx="461.3" cy="554.3" r="3" fill="#5e357b" opacity="0.15"/>
<line x1="540.0" y1="540.0" x2="461.3" y2="554.3" stroke="#5e357b" stroke-width="0.5" opacity="0.075"/>
<circle cx="465.4" cy="511.2" r="3" fill="#5e357b" opacity="0.15"/>
<line x1="540.0" y1="540.0" x2="465.4" y2="511.2" stroke="#5e357b" stroke-width="0.5" opacity="0.075"/>
<circle cx="614.2" cy="569.9" r="3" fill="#5e357b" opacity="0.15"/>
<line x1="540.0" y1="540.0" x2="614.2" y2="569.9" stroke="#5e357b" stroke-width="0.5" opacity="0.075"/>
<circle cx="466.3" cy="508.9" r="3" fill="#5e357b" opacity="0.15"/>
<line x1="540.0" y1="540.0" x2="466.3" y2="508.9" stroke="#5e357b" stroke-width="0.5" opacity="0.075"/>
<circle cx="493.2" cy="475.1" r="3" fill="#5e357b" opacity="0.15"/>
<line x1="540.0" y1="540.0" x2="493.2" y2="475.1" stroke="#5e357b" stroke-width="0.5" opacity="0.075"/>
<circle cx="540.0" cy="540.0" r="140" fill="none" stroke="#5e357b" stroke-width="1" opacity="0.036"/>
<circle cx="402.3" cy="565.0" r="3" fill="#5e357b" opacity="0.12"/>
<line x1="540.0" y1="540.0" x2="402.3" y2="565.0" stroke="#5e357b" stroke-width="0.5" opacity="0.06"/>
<circle cx="409.4" cy="489.6" r="3" fill="#5e357b" opacity="0.12"/>
<line x1="540.0" y1="540.0" x2="409.4" y2="489.6" stroke="#5e357b" stroke-width="0.5" opacity="0.06"/>
<circle cx="669.8" cy="592.4" r="3" fill="#5e357b" opacity="0.12"/>
<line x1="540.0" y1="540.0" x2="669.8" y2="592.4" stroke="#5e357b" stroke-width="0.5" opacity="0.06"/>
<circle cx="411.0" cy="485.7" r="3" fill="#5e357b" opacity="0.12"/>
<line x1="540.0" y1="540.0" x2="411.0" y2="485.7" stroke="#5e357b" stroke-width="0.5" opacity="0.06"/>
<circle cx="458.2" cy="426.4" r="3" fill="#5e357b" opacity="0.12"/>
<line x1="540.0" y1="540.0" x2="458.2" y2="426.4" stroke="#5e357b" stroke-width="0.5" opacity="0.06"/>
<circle cx="540.0" cy="540.0" r="200" fill="none" stroke="#5e357b" stroke-width="1" opacity="0.027"/>
<circle cx="343.2" cy="575.7" r="3" fill="#5e357b" opacity="0.09"/>
<line x1="540.0" y1="540.0" x2="343.2" y2="575.7" stroke="#5e357b" stroke-width="0.5" opacity="0.045"/>
<circle cx="353.4" cy="468.0" r="3" fill="#5e357b" opacity="0.09"/>
<line x1="540.0" y1="540.0" x2="353.4" y2="468.0" stroke="#5e357b" stroke-width="0.5" opacity="0.045"/>
<circle cx="725.5" cy="614.8" r="3" fill="#5e357b" opacity="0.09"/>
<line x1="540.0" y1="540.0" x2="725.5" y2="614.8" stroke="#5e357b" stroke-width="0.5" opacity="0.045"/>
<circle cx="355.7" cy="462.4" r="3" fill="#5e357b" opacity="0.09"/>
<line x1="540.0" y1="540.0" x2="355.7" y2="462.4" stroke="#5e357b" stroke-width="0.5" opacity="0.045"/>
<circle cx="423.1" cy="377.7" r="3" fill="#5e357b" opacity="0.09"/>
<line x1="540.0" y1="540.0" x2="423.1" y2="377.7" stroke="#5e357b" stroke-width="0.5" opacity="0.045"/>
<path d="M0.0,526.1 L10.8,530.2 L21.6,535.0 L32.4,540.2 L43.2,545.4 L54.0,550.2 L64.8,554.2 L75.6,557.2 L86.4,559.0 L97.2,559.3 L108.0,558.3 L118.8,555.9 L129.6,552.4 L140.4,547.9 L151.2,542.9 L162.0,537.7 L172.8,532.6 L183.6,528.1 L194.4,524.4 L205.2,521.9 L216.0,520.7 L226.8,520.9 L237.6,522.5 L248.4,525.4 L259.2,529.3 L270.0,534.0 L280.8,539.2 L291.6,544.4 L302.4,549.3 L313.2,553.5 L324.0,556.7 L334.8,558.7 L345.6,559.4 L356.4,558.6 L367.2,556.5 L378.0,553.2 L388.8,548.9 L399.6,544.0 L410.4,538.8 L421.2,533.6 L432.0,529.0 L442.8,525.1 L453.6,522.3 L464.4,520.8 L475.2,520.7 L486.0,522.1 L496.8,524.7 L507.6,528.4 L518.4,533.0 L529.2,538.1 L540.0,543.3 L550.8,548.3 L561.6,552.7 L572.4,556.1 L583.2,558.4 L594.0,559.4 L604.8,558.9 L615.6,557.1 L626.4,554.0 L637.2,549.9 L648.0,545.0 L658.8,539.9 L669.6,534.7 L680.4,529.9 L691.2,525.8 L702.0,522.8 L712.8,521.0 L723.6,520.6 L734.4,521.7 L745.2,524.0 L756.0,527.6 L766.8,532.0 L777.6,537.0 L788.4,542.2 L799.2,547.3 L810.0,551.8 L820.8,555.5 L831.6,558.1 L842.4,559.3 L853.2,559.1 L864.0,557.5 L874.8,554.7 L885.6,550.8 L896.4,546.1 L907.2,540.9 L918.0,535.7 L928.8,530.8 L939.6,526.6 L950.4,523.3 L961.2,521.3 L972.0,520.6 L982.8,521.3 L993.6,523.4 L1004.4,526.7 L1015.2,531.0 L1026.0,535.9 L1036.8,541.1 L1047.6,546.3 L1058.4,551.0 L1069.2,554.8 L1080.0,557.6" fill="none" stroke="#5e357b" stroke-width="2" opacity="0.2" filter="url(#glow)"/>
<text x="540.0" y="412.5232921501136" fill="#ffffff" opacity="0.95" font-family="Impact,Arial Black,sans-serif" font-size="32" text-anchor="middle" filter="url(#glow)">NEXUS: ChatGPT + Perplexity + OpenClaw. One memory. Many minds. Never sleeps.</text>
<text x="540.0" y="462.5232921501136" fill="#aaaaaa" opacity="0.7" font-family="Impact,Arial Black,sans-serif" font-size="20" text-anchor="middle" filter="url(#glow)">24/7 unified chatbot entity farm</text>
<text x="162.0" y="129.6" fill="#5e357b" opacity="0.50" font-family="monospace" font-size="14.4" text-anchor="start">arc: purgatory</text>
<text x="162.0" y="149.6" fill="#5e357b" opacity="0.31" font-family="monospace" font-size="8.9" text-anchor="start">arc: purgatory</text>
<text x="540.0" y="1050" fill="#00ff88" opacity="0.2" font-family="Impact,Arial Black,sans-serif" font-size="11" text-anchor="middle" filter="url(#glow)">⛓ dc0e912d750f</text>
<text x="30" y="35" fill="#8844ff" opacity="0.7" font-family="Impact,Arial Black,sans-serif" font-size="22" text-anchor="start" filter="url(#glow)">◆ EVEZ-OS</text>
<text x="1050" y="25" fill="#75292b" opacity="0.4" font-family="Impact,Arial Black,sans-serif" font-size="11" text-anchor="end" filter="url(#glow)">η*=0.040</text>
<text x="1050" y="40" fill="#75292b" opacity="0.4" font-family="Impact,Arial Black,sans-serif" font-size="11" text-anchor="end" filter="url(#glow)">Φ=0.600</text>
<text x="1050" y="55" fill="#75292b" opacity="0.4" font-family="Impact,Arial Black,sans-serif" font-size="11" text-anchor="end" filter="url(#glow)">r=0.50</text>
</svg>