<svg xmlns="http://www.w3.org/2000/svg" width="1080" height="1080" viewBox="0 0 1080 1080">
<defs>
  <linearGradient id="bg" x1="0%" y1="0%" x2="100%" y2="100%">
    <stop offset="0%" style="stop-color:#0a0a0f;stop-opacity:1"/>
    <stop offset="100%" style="stop-color:#1a0a2f;stop-opacity:1"/>
  </linearGradient>
  <filter id="glow"><feGaussianBlur stdDeviation="2" result="b"/><feMerge><feMergeNode in="b"/><feMergeNode in="SourceGraphic"/></feMerge></filter>
  <filter id="glow-strong"><feGaussianBlur stdDeviation="4" result="b"/><feMerge><feMergeNode in="b"/><feMergeNode in="SourceGraphic"/></feMerge></filter>
</defs>
<rect width="1080" height="1080" fill="url(#bg)"/>
<rect x="0" y="0" width="1080" height="1080" fill="rgb(118,53,42)" opacity="0.12"/>
<circle cx="108.0" cy="108.0" r="6.9" fill="#8844ff" opacity="0.0032"/>
<text x="108.0" y="126.9" fill="#8844ff" opacity="0.04" font-family="monospace" font-size="9" text-anchor="middle">0.040</text>
<circle cx="324.0" cy="108.0" r="103.7" fill="#8844ff" opacity="0.048"/>
<text x="324.0" y="223.7" fill="#8844ff" opacity="0.04" font-family="monospace" font-size="9" text-anchor="middle">0.600</text>
<circle cx="540.0" cy="108.0" r="86.4" fill="#8844ff" opacity="0.04"/>
<text x="540.0" y="206.4" fill="#8844ff" opacity="0.04" font-family="monospace" font-size="9" text-anchor="middle">0.500</text>
<circle cx="756.0" cy="108.0" r="80.2" fill="#8844ff" opacity="0.037152378689788323"/>
<text x="756.0" y="200.2" fill="#8844ff" opacity="0.04" font-family="monospace" font-size="9" text-anchor="middle">0.464</text>
<circle cx="972.0" cy="108.0" r="92.6" fill="#8844ff" opacity="0.04284762131021168"/>
<text x="972.0" y="212.6" fill="#8844ff" opacity="0.04" font-family="monospace" font-size="9" text-anchor="middle">0.536</text>
<circle cx="540.0" cy="540.0" r="80" fill="none" stroke="#5e357a" stroke-width="1" opacity="0.045"/>
<circle cx="496.0" cy="473.2" r="3" fill="#5e357a" opacity="0.15"/>
<line x1="540.0" y1="540.0" x2="496.0" y2="473.2" stroke="#5e357a" stroke-width="0.5" opacity="0.075"/>
<circle cx="532.4" cy="460.4" r="3" fill="#5e357a" opacity="0.15"/>
<line x1="540.0" y1="540.0" x2="532.4" y2="460.4" stroke="#5e357a" stroke-width="0.5" opacity="0.075"/>
<circle cx="541.1" cy="620.0" r="3" fill="#5e357a" opacity="0.15"/>
<line x1="540.0" y1="540.0" x2="541.1" y2="620.0" stroke="#5e357a" stroke-width="0.5" opacity="0.075"/>
<circle cx="545.4" cy="460.2" r="3" fill="#5e357a" opacity="0.15"/>
<line x1="540.0" y1="540.0" x2="545.4" y2="460.2" stroke="#5e357a" stroke-width="0.5" opacity="0.075"/>
<circle cx="582.2" cy="472.0" r="3" fill="#5e357a" opacity="0.15"/>
<line x1="540.0" y1="540.0" x2="582.2" y2="472.0" stroke="#5e357a" stroke-width="0.5" opacity="0.075"/>
<circle cx="540.0" cy="540.0" r="140" fill="none" stroke="#5e357a" stroke-width="1" opacity="0.036"/>
<circle cx="462.9" cy="423.1" r="3" fill="#5e357a" opacity="0.12"/>
<line x1="540.0" y1="540.0" x2="462.9" y2="423.1" stroke="#5e357a" stroke-width="0.5" opacity="0.06"/>
<circle cx="526.7" cy="400.6" r="3" fill="#5e357a" opacity="0.12"/>
<line x1="540.0" y1="540.0" x2="526.7" y2="400.6" stroke="#5e357a" stroke-width="0.5" opacity="0.06"/>
<circle cx="541.9" cy="680.0" r="3" fill="#5e357a" opacity="0.12"/>
<line x1="540.0" y1="540.0" x2="541.9" y2="680.0" stroke="#5e357a" stroke-width="0.5" opacity="0.06"/>
<circle cx="549.5" cy="400.3" r="3" fill="#5e357a" opacity="0.12"/>
<line x1="540.0" y1="540.0" x2="549.5" y2="400.3" stroke="#5e357a" stroke-width="0.5" opacity="0.06"/>
<circle cx="613.8" cy="421.1" r="3" fill="#5e357a" opacity="0.12"/>
<line x1="540.0" y1="540.0" x2="613.8" y2="421.1" stroke="#5e357a" stroke-width="0.5" opacity="0.06"/>
<circle cx="540.0" cy="540.0" r="200" fill="none" stroke="#5e357a" stroke-width="1" opacity="0.027"/>
<circle cx="429.9" cy="373.0" r="3" fill="#5e357a" opacity="0.09"/>
<line x1="540.0" y1="540.0" x2="429.9" y2="373.0" stroke="#5e357a" stroke-width="0.5" opacity="0.045"/>
<circle cx="521.0" cy="340.9" r="3" fill="#5e357a" opacity="0.09"/>
<line x1="540.0" y1="540.0" x2="521.0" y2="340.9" stroke="#5e357a" stroke-width="0.5" opacity="0.045"/>
<circle cx="542.7" cy="740.0" r="3" fill="#5e357a" opacity="0.09"/>
<line x1="540.0" y1="540.0" x2="542.7" y2="740.0" stroke="#5e357a" stroke-width="0.5" opacity="0.045"/>
<circle cx="553.5" cy="340.5" r="3" fill="#5e357a" opacity="0.09"/>
<line x1="540.0" y1="540.0" x2="553.5" y2="340.5" stroke="#5e357a" stroke-width="0.5" opacity="0.045"/>
<circle cx="645.5" cy="370.1" r="3" fill="#5e357a" opacity="0.09"/>
<line x1="540.0" y1="540.0" x2="645.5" y2="370.1" stroke="#5e357a" stroke-width="0.5" opacity="0.045"/>
<path d="M0.0,559.4 L10.8,559.0 L21.6,557.1 L32.4,554.1 L43.2,550.0 L54.0,545.1 L64.8,539.9 L75.6,534.7 L86.4,529.9 L97.2,525.8 L108.0,522.8 L118.8,521.0 L129.6,520.6 L140.4,521.7 L151.2,524.0 L162.0,527.6 L172.8,532.1 L183.6,537.1 L194.4,542.4 L205.2,547.5 L216.0,552.0 L226.8,555.7 L237.6,558.2 L248.4,559.4 L259.2,559.1 L270.0,557.5 L280.8,554.6 L291.6,550.6 L302.4,545.8 L313.2,540.6 L324.0,535.4 L334.8,530.5 L345.6,526.3 L356.4,523.1 L367.2,521.1 L378.0,520.6 L388.8,521.4 L399.6,523.6 L410.4,527.0 L421.2,531.4 L432.0,536.4 L442.8,541.7 L453.6,546.8 L464.4,551.4 L475.2,555.2 L486.0,557.9 L496.8,559.3 L507.6,559.2 L518.4,557.8 L529.2,555.0 L540.0,551.2 L550.8,546.5 L561.6,541.3 L572.4,536.1 L583.2,531.1 L594.0,526.8 L604.8,523.5 L615.6,521.3 L626.4,520.6 L637.2,521.2 L648.0,523.3 L658.8,526.5 L669.6,530.8 L680.4,535.7 L691.2,540.9 L702.0,546.1 L712.8,550.8 L723.6,554.8 L734.4,557.6 L745.2,559.2 L756.0,559.3 L766.8,558.1 L777.6,555.5 L788.4,551.8 L799.2,547.2 L810.0,542.1 L820.8,536.8 L831.6,531.8 L842.4,527.4 L853.2,523.9 L864.0,521.6 L874.8,520.6 L885.6,521.1 L896.4,522.9 L907.2,526.0 L918.0,530.1 L928.8,535.0 L939.6,540.2 L950.4,545.4 L961.2,550.2 L972.0,554.3 L982.8,557.3 L993.6,559.0 L1004.4,559.4 L1015.2,558.3 L1026.0,555.9 L1036.8,552.3 L1047.6,547.8 L1058.4,542.8 L1069.2,537.5 L1080.0,532.4" fill="none" stroke="#5e357a" stroke-width="2" opacity="0.2" filter="url(#glow)"/>
<text x="540.0" y="412.5232921501136" fill="#ffffff" opacity="0.95" font-family="Impact,Arial Black,sans-serif" font-size="32" text-anchor="middle" filter="url(#glow)">NEXUS: ChatGPT + Perplexity + OpenClaw. One memory. Many minds. Never sleeps.</text>
<text x="540.0" y="462.5232921501136" fill="#aaaaaa" opacity="0.7" font-family="Impact,Arial Black,sans-serif" font-size="20" text-anchor="middle" filter="url(#glow)">24/7 unified chatbot entity farm</text>
<text x="162.0" y="129.6" fill="#5e357a" opacity="0.50" font-family="monospace" font-size="14.4" text-anchor="start">arc: purgatory</text>
<text x="162.0" y="149.6" fill="#5e357a" opacity="0.31" font-family="monospace" font-size="8.9" text-anchor="start">arc: purgatory</text>
<text x="540.0" y="1050" fill="#00ff88" opacity="0.2" font-family="Impact,Arial Black,sans-serif" font-size="11" text-anchor="middle" filter="url(#glow)">⛓ dc0e912d750f</text>
<text x="30" y="35" fill="#8844ff" opacity="0.7" font-family="Impact,Arial Black,sans-serif" font-size="22" text-anchor="start" filter="url(#glow)">◆ EVEZ-OS</text>
<text x="1050" y="25" fill="#76282a" opacity="0.4" font-family="Impact,Arial Black,sans-serif" font-size="11" text-anchor="end" filter="url(#glow)">η*=0.040</text>
<text x="1050" y="40" fill="#76282a" opacity="0.4" font-family="Impact,Arial Black,sans-serif" font-size="11" text-anchor="end" filter="url(#glow)">Φ=0.600</text>
<text x="1050" y="55" fill="#76282a" opacity="0.4" font-family="Impact,Arial Black,sans-serif" font-size="11" text-anchor="end" filter="url(#glow)">r=0.50</text>
</svg>