<svg xmlns="http://www.w3.org/2000/svg" width="1080" height="1080" viewBox="0 0 1080 1080">
<defs>
  <linearGradient id="bg" x1="0%" y1="0%" x2="100%" y2="100%">
    <stop offset="0%" style="stop-color:#0a0a0f;stop-opacity:1"/>
    <stop offset="100%" style="stop-color:#1a0a2f;stop-opacity:1"/>
  </linearGradient>
  <filter id="glow"><feGaussianBlur stdDeviation="2" result="b"/><feMerge><feMergeNode in="b"/><feMergeNode in="SourceGraphic"/></feMerge></filter>
  <filter id="glow-strong"><feGaussianBlur stdDeviation="4" result="b"/><feMerge><feMergeNode in="b"/><feMergeNode in="SourceGraphic"/></feMerge></filter>
</defs>
<rect width="1080" height="1080" fill="url(#bg)"/>
<rect x="0" y="0" width="1080" height="1080" fill="rgb(156,38,31)" opacity="0.12"/>
<circle cx="108.0" cy="108.0" r="6.9" fill="#8844ff" opacity="0.0032"/>
<text x="108.0" y="126.9" fill="#8844ff" opacity="0.04" font-family="monospace" font-size="9" text-anchor="middle">0.040</text>
<circle cx="324.0" cy="108.0" r="103.7" fill="#8844ff" opacity="0.048"/>
<text x="324.0" y="223.7" fill="#8844ff" opacity="0.04" font-family="monospace" font-size="9" text-anchor="middle">0.600</text>
<circle cx="540.0" cy="108.0" r="86.4" fill="#8844ff" opacity="0.04"/>
<text x="540.0" y="206.4" fill="#8844ff" opacity="0.04" font-family="monospace" font-size="9" text-anchor="middle">0.500</text>
<circle cx="756.0" cy="108.0" r="105.8" fill="#8844ff" opacity="0.04897225645817656"/>
<text x="756.0" y="225.8" fill="#8844ff" opacity="0.04" font-family="monospace" font-size="9" text-anchor="middle">0.612</text>
<circle cx="972.0" cy="108.0" r="67.0" fill="#8844ff" opacity="0.031027743541823437"/>
<text x="972.0" y="187.0" fill="#8844ff" opacity="0.04" font-family="monospace" font-size="9" text-anchor="middle">0.388</text>
<circle cx="540.0" cy="540.0" r="80" fill="none" stroke="#7c2659" stroke-width="1" opacity="0.045"/>
<circle cx="482.1" cy="595.2" r="3" fill="#7c2659" opacity="0.15"/>
<line x1="540.0" y1="540.0" x2="482.1" y2="595.2" stroke="#7c2659" stroke-width="0.5" opacity="0.075"/>
<circle cx="475.0" cy="493.4" r="3" fill="#7c2659" opacity="0.15"/>
<line x1="540.0" y1="540.0" x2="475.0" y2="493.4" stroke="#7c2659" stroke-width="0.5" opacity="0.075"/>
<circle cx="614.4" cy="510.7" r="3" fill="#7c2659" opacity="0.15"/>
<line x1="540.0" y1="540.0" x2="614.4" y2="510.7" stroke="#7c2659" stroke-width="0.5" opacity="0.075"/>
<circle cx="524.2" cy="618.4" r="3" fill="#7c2659" opacity="0.15"/>
<line x1="540.0" y1="540.0" x2="524.2" y2="618.4" stroke="#7c2659" stroke-width="0.5" opacity="0.075"/>
<circle cx="460.0" cy="539.1" r="3" fill="#7c2659" opacity="0.15"/>
<line x1="540.0" y1="540.0" x2="460.0" y2="539.1" stroke="#7c2659" stroke-width="0.5" opacity="0.075"/>
<circle cx="540.0" cy="540.0" r="140" fill="none" stroke="#7c2659" stroke-width="1" opacity="0.036"/>
<circle cx="438.6" cy="636.5" r="3" fill="#7c2659" opacity="0.12"/>
<line x1="540.0" y1="540.0" x2="438.6" y2="636.5" stroke="#7c2659" stroke-width="0.5" opacity="0.06"/>
<circle cx="426.2" cy="458.5" r="3" fill="#7c2659" opacity="0.12"/>
<line x1="540.0" y1="540.0" x2="426.2" y2="458.5" stroke="#7c2659" stroke-width="0.5" opacity="0.06"/>
<circle cx="670.3" cy="488.7" r="3" fill="#7c2659" opacity="0.12"/>
<line x1="540.0" y1="540.0" x2="670.3" y2="488.7" stroke="#7c2659" stroke-width="0.5" opacity="0.06"/>
<circle cx="512.3" cy="677.2" r="3" fill="#7c2659" opacity="0.12"/>
<line x1="540.0" y1="540.0" x2="512.3" y2="677.2" stroke="#7c2659" stroke-width="0.5" opacity="0.06"/>
<circle cx="400.0" cy="538.5" r="3" fill="#7c2659" opacity="0.12"/>
<line x1="540.0" y1="540.0" x2="400.0" y2="538.5" stroke="#7c2659" stroke-width="0.5" opacity="0.06"/>
<circle cx="540.0" cy="540.0" r="200" fill="none" stroke="#7c2659" stroke-width="1" opacity="0.027"/>
<circle cx="395.1" cy="677.9" r="3" fill="#7c2659" opacity="0.09"/>
<line x1="540.0" y1="540.0" x2="395.1" y2="677.9" stroke="#7c2659" stroke-width="0.5" opacity="0.045"/>
<circle cx="377.4" cy="423.5" r="3" fill="#7c2659" opacity="0.09"/>
<line x1="540.0" y1="540.0" x2="377.4" y2="423.5" stroke="#7c2659" stroke-width="0.5" opacity="0.045"/>
<circle cx="726.1" cy="466.8" r="3" fill="#7c2659" opacity="0.09"/>
<line x1="540.0" y1="540.0" x2="726.1" y2="466.8" stroke="#7c2659" stroke-width="0.5" opacity="0.045"/>
<circle cx="500.4" cy="736.0" r="3" fill="#7c2659" opacity="0.09"/>
<line x1="540.0" y1="540.0" x2="500.4" y2="736.0" stroke="#7c2659" stroke-width="0.5" opacity="0.045"/>
<circle cx="340.0" cy="537.8" r="3" fill="#7c2659" opacity="0.09"/>
<line x1="540.0" y1="540.0" x2="340.0" y2="537.8" stroke="#7c2659" stroke-width="0.5" opacity="0.045"/>
<path d="M0.0,521.9 L10.8,526.5 L21.6,532.6 L32.4,539.4 L43.2,546.2 L54.0,552.4 L64.8,557.4 L75.6,560.6 L86.4,561.8 L97.2,560.8 L108.0,557.7 L118.8,552.8 L129.6,546.6 L140.4,539.8 L151.2,533.0 L162.0,526.9 L172.8,522.1 L183.6,519.1 L194.4,518.2 L205.2,519.5 L216.0,522.8 L226.8,527.9 L237.6,534.2 L248.4,541.0 L259.2,547.8 L270.0,553.7 L280.8,558.3 L291.6,561.1 L302.4,561.7 L313.2,560.2 L324.0,556.6 L334.8,551.4 L345.6,545.0 L356.4,538.2 L367.2,531.5 L378.0,525.6 L388.8,521.2 L399.6,518.7 L410.4,518.3 L421.2,520.1 L432.0,523.9 L442.8,529.3 L453.6,535.8 L464.4,542.7 L475.2,549.3 L486.0,555.0 L496.8,559.2 L507.6,561.5 L518.4,561.6 L529.2,559.5 L540.0,555.5 L550.8,550.0 L561.6,543.4 L572.4,536.5 L583.2,530.0 L594.0,524.4 L604.8,520.4 L615.6,518.4 L626.4,518.6 L637.2,520.9 L648.0,525.1 L658.8,530.8 L669.6,537.4 L680.4,544.3 L691.2,550.8 L702.0,556.2 L712.8,559.9 L723.6,561.7 L734.4,561.3 L745.2,558.7 L756.0,554.3 L766.8,548.5 L777.6,541.7 L788.4,534.9 L799.2,528.5 L810.0,523.3 L820.8,519.8 L831.6,518.2 L842.4,518.9 L853.2,521.7 L864.0,526.3 L874.8,532.3 L885.6,539.1 L896.4,545.9 L907.2,552.2 L918.0,557.2 L928.8,560.5 L939.6,561.8 L950.4,560.9 L961.2,557.8 L972.0,553.0 L982.8,546.9 L993.6,540.1 L1004.4,533.3 L1015.2,527.1 L1026.0,522.3 L1036.8,519.2 L1047.6,518.2 L1058.4,519.4 L1069.2,522.7 L1080.0,527.7" fill="none" stroke="#7c2659" stroke-width="2" opacity="0.2" filter="url(#glow)"/>
<text x="540.0" y="412.5232921501136" fill="#ffffff" opacity="0.95" font-family="Impact,Arial Black,sans-serif" font-size="32" text-anchor="middle" filter="url(#glow)">NEXUS: ChatGPT + Perplexity + OpenClaw. One memory. Many minds. Never sleeps.</text>
<text x="540.0" y="462.5232921501136" fill="#aaaaaa" opacity="0.7" font-family="Impact,Arial Black,sans-serif" font-size="20" text-anchor="middle" filter="url(#glow)">24/7 unified chatbot entity farm</text>
<text x="162.0" y="129.6" fill="#7c2659" opacity="0.50" font-family="monospace" font-size="14.4" text-anchor="start">arc: purgatory</text>
<text x="162.0" y="149.6" fill="#7c2659" opacity="0.31" font-family="monospace" font-size="8.9" text-anchor="start">arc: purgatory</text>
<text x="540.0" y="1050" fill="#00ff88" opacity="0.2" font-family="Impact,Arial Black,sans-serif" font-size="11" text-anchor="middle" filter="url(#glow)">⛓ dc0e912d750f</text>
<text x="30" y="35" fill="#8844ff" opacity="0.7" font-family="Impact,Arial Black,sans-serif" font-size="22" text-anchor="start" filter="url(#glow)">◆ EVEZ-OS</text>
<text x="1050" y="25" fill="#9c1d1f" opacity="0.4" font-family="Impact,Arial Black,sans-serif" font-size="11" text-anchor="end" filter="url(#glow)">η*=0.040</text>
<text x="1050" y="40" fill="#9c1d1f" opacity="0.4" font-family="Impact,Arial Black,sans-serif" font-size="11" text-anchor="end" filter="url(#glow)">Φ=0.600</text>
<text x="1050" y="55" fill="#9c1d1f" opacity="0.4" font-family="Impact,Arial Black,sans-serif" font-size="11" text-anchor="end" filter="url(#glow)">r=0.50</text>
</svg>