<svg xmlns="http://www.w3.org/2000/svg" width="1080" height="1080" viewBox="0 0 1080 1080">
<defs>
  <linearGradient id="bg" x1="0%" y1="0%" x2="100%" y2="100%">
    <stop offset="0%" style="stop-color:#0a0a0f;stop-opacity:1"/>
    <stop offset="100%" style="stop-color:#1a0a2f;stop-opacity:1"/>
  </linearGradient>
  <filter id="glow"><feGaussianBlur stdDeviation="2" result="b"/><feMerge><feMergeNode in="b"/><feMergeNode in="SourceGraphic"/></feMerge></filter>
  <filter id="glow-strong"><feGaussianBlur stdDeviation="4" result="b"/><feMerge><feMergeNode in="b"/><feMergeNode in="SourceGraphic"/></feMerge></filter>
</defs>
<rect width="1080" height="1080" fill="url(#bg)"/>
<rect x="0" y="0" width="1080" height="1080" fill="rgb(134,47,37)" opacity="0.12"/>
<circle cx="108.0" cy="108.0" r="6.9" fill="#8844ff" opacity="0.0032"/>
<text x="108.0" y="126.9" fill="#8844ff" opacity="0.04" font-family="monospace" font-size="9" text-anchor="middle">0.040</text>
<circle cx="324.0" cy="108.0" r="103.7" fill="#8844ff" opacity="0.048"/>
<text x="324.0" y="223.7" fill="#8844ff" opacity="0.04" font-family="monospace" font-size="9" text-anchor="middle">0.600</text>
<circle cx="540.0" cy="108.0" r="86.4" fill="#8844ff" opacity="0.04"/>
<text x="540.0" y="206.4" fill="#8844ff" opacity="0.04" font-family="monospace" font-size="9" text-anchor="middle">0.500</text>
<circle cx="756.0" cy="108.0" r="90.9" fill="#8844ff" opacity="0.042061810073213954"/>
<text x="756.0" y="210.9" fill="#8844ff" opacity="0.04" font-family="monospace" font-size="9" text-anchor="middle">0.526</text>
<circle cx="972.0" cy="108.0" r="81.9" fill="#8844ff" opacity="0.03793818992678605"/>
<text x="972.0" y="201.9" fill="#8844ff" opacity="0.04" font-family="monospace" font-size="9" text-anchor="middle">0.474</text>
<circle cx="540.0" cy="540.0" r="80" fill="none" stroke="#6b2f6c" stroke-width="1" opacity="0.045"/>
<circle cx="490.5" cy="477.1" r="3" fill="#6b2f6c" opacity="0.15"/>
<line x1="540.0" y1="540.0" x2="490.5" y2="477.1" stroke="#6b2f6c" stroke-width="0.5" opacity="0.075"/>
<circle cx="575.5" cy="468.3" r="3" fill="#6b2f6c" opacity="0.15"/>
<line x1="540.0" y1="540.0" x2="575.5" y2="468.3" stroke="#6b2f6c" stroke-width="0.5" opacity="0.075"/>
<circle cx="554.7" cy="618.6" r="3" fill="#6b2f6c" opacity="0.15"/>
<line x1="540.0" y1="540.0" x2="554.7" y2="618.6" stroke="#6b2f6c" stroke-width="0.5" opacity="0.075"/>
<circle cx="481.0" cy="486.0" r="3" fill="#6b2f6c" opacity="0.15"/>
<line x1="540.0" y1="540.0" x2="481.0" y2="486.0" stroke="#6b2f6c" stroke-width="0.5" opacity="0.075"/>
<circle cx="563.4" cy="463.5" r="3" fill="#6b2f6c" opacity="0.15"/>
<line x1="540.0" y1="540.0" x2="563.4" y2="463.5" stroke="#6b2f6c" stroke-width="0.5" opacity="0.075"/>
<circle cx="540.0" cy="540.0" r="140" fill="none" stroke="#6b2f6c" stroke-width="1" opacity="0.036"/>
<circle cx="453.4" cy="430.0" r="3" fill="#6b2f6c" opacity="0.12"/>
<line x1="540.0" y1="540.0" x2="453.4" y2="430.0" stroke="#6b2f6c" stroke-width="0.5" opacity="0.06"/>
<circle cx="602.1" cy="414.5" r="3" fill="#6b2f6c" opacity="0.12"/>
<line x1="540.0" y1="540.0" x2="602.1" y2="414.5" stroke="#6b2f6c" stroke-width="0.5" opacity="0.06"/>
<circle cx="565.8" cy="677.6" r="3" fill="#6b2f6c" opacity="0.12"/>
<line x1="540.0" y1="540.0" x2="565.8" y2="677.6" stroke="#6b2f6c" stroke-width="0.5" opacity="0.06"/>
<circle cx="436.7" cy="445.5" r="3" fill="#6b2f6c" opacity="0.12"/>
<line x1="540.0" y1="540.0" x2="436.7" y2="445.5" stroke="#6b2f6c" stroke-width="0.5" opacity="0.06"/>
<circle cx="580.9" cy="406.1" r="3" fill="#6b2f6c" opacity="0.12"/>
<line x1="540.0" y1="540.0" x2="580.9" y2="406.1" stroke="#6b2f6c" stroke-width="0.5" opacity="0.06"/>
<circle cx="540.0" cy="540.0" r="200" fill="none" stroke="#6b2f6c" stroke-width="1" opacity="0.027"/>
<circle cx="416.3" cy="382.9" r="3" fill="#6b2f6c" opacity="0.09"/>
<line x1="540.0" y1="540.0" x2="416.3" y2="382.9" stroke="#6b2f6c" stroke-width="0.5" opacity="0.045"/>
<circle cx="628.7" cy="360.7" r="3" fill="#6b2f6c" opacity="0.09"/>
<line x1="540.0" y1="540.0" x2="628.7" y2="360.7" stroke="#6b2f6c" stroke-width="0.5" opacity="0.045"/>
<circle cx="576.9" cy="736.6" r="3" fill="#6b2f6c" opacity="0.09"/>
<line x1="540.0" y1="540.0" x2="576.9" y2="736.6" stroke="#6b2f6c" stroke-width="0.5" opacity="0.045"/>
<circle cx="392.4" cy="405.0" r="3" fill="#6b2f6c" opacity="0.09"/>
<line x1="540.0" y1="540.0" x2="392.4" y2="405.0" stroke="#6b2f6c" stroke-width="0.5" opacity="0.045"/>
<circle cx="598.4" cy="348.7" r="3" fill="#6b2f6c" opacity="0.09"/>
<line x1="540.0" y1="540.0" x2="598.4" y2="348.7" stroke="#6b2f6c" stroke-width="0.5" opacity="0.045"/>
<path d="M0.0,556.5 L10.8,552.4 L21.6,547.2 L32.4,541.4 L43.2,535.5 L54.0,530.0 L64.8,525.3 L75.6,521.9 L86.4,519.9 L97.2,519.7 L108.0,521.2 L118.8,524.2 L129.6,528.6 L140.4,533.9 L151.2,539.8 L162.0,545.6 L172.8,551.0 L183.6,555.5 L194.4,558.6 L205.2,560.2 L216.0,560.1 L226.8,558.4 L237.6,555.0 L248.4,550.4 L259.2,545.0 L270.0,539.1 L280.8,533.3 L291.6,528.0 L302.4,523.8 L313.2,520.9 L324.0,519.6 L334.8,520.1 L345.6,522.2 L356.4,525.8 L367.2,530.6 L378.0,536.2 L388.8,542.1 L399.6,547.8 L410.4,552.9 L421.2,556.9 L432.0,559.5 L442.8,560.4 L453.6,559.6 L464.4,557.2 L475.2,553.3 L486.0,548.3 L496.8,542.6 L507.6,536.7 L518.4,531.1 L529.2,526.2 L540.0,522.5 L550.8,520.2 L561.6,519.6 L572.4,520.7 L583.2,523.5 L594.0,527.6 L604.8,532.8 L615.6,538.5 L626.4,544.4 L637.2,550.0 L648.0,554.6 L658.8,558.1 L669.6,560.1 L680.4,560.3 L691.2,558.9 L702.0,555.8 L712.8,551.5 L723.6,546.1 L734.4,540.3 L745.2,534.4 L756.0,529.0 L766.8,524.6 L777.6,521.4 L788.4,519.8 L799.2,519.8 L810.0,521.6 L820.8,524.9 L831.6,529.5 L842.4,535.0 L853.2,540.9 L864.0,546.7 L874.8,551.9 L885.6,556.2 L896.4,559.1 L907.2,560.4 L918.0,559.9 L928.8,557.8 L939.6,554.2 L950.4,549.4 L961.2,543.9 L972.0,537.9 L982.8,532.2 L993.6,527.1 L1004.4,523.1 L1015.2,520.5 L1026.0,519.6 L1036.8,520.4 L1047.6,522.8 L1058.4,526.6 L1069.2,531.6 L1080.0,537.3" fill="none" stroke="#6b2f6c" stroke-width="2" opacity="0.2" filter="url(#glow)"/>
<text x="540.0" y="412.5232921501136" fill="#ffffff" opacity="0.95" font-family="Impact,Arial Black,sans-serif" font-size="32" text-anchor="middle" filter="url(#glow)">NEXUS: ChatGPT + Perplexity + OpenClaw. One memory. Many minds. Never sleeps.</text>
<text x="540.0" y="462.5232921501136" fill="#aaaaaa" opacity="0.7" font-family="Impact,Arial Black,sans-serif" font-size="20" text-anchor="middle" filter="url(#glow)">24/7 unified chatbot entity farm</text>
<text x="162.0" y="129.6" fill="#6b2f6c" opacity="0.50" font-family="monospace" font-size="14.4" text-anchor="start">arc: purgatory</text>
<text x="162.0" y="149.6" fill="#6b2f6c" opacity="0.31" font-family="monospace" font-size="8.9" text-anchor="start">arc: purgatory</text>
<text x="540.0" y="1050" fill="#00ff88" opacity="0.2" font-family="Impact,Arial Black,sans-serif" font-size="11" text-anchor="middle" filter="url(#glow)">⛓ dc0e912d750f</text>
<text x="30" y="35" fill="#8844ff" opacity="0.7" font-family="Impact,Arial Black,sans-serif" font-size="22" text-anchor="start" filter="url(#glow)">◆ EVEZ-OS</text>
<text x="1050" y="25" fill="#862425" opacity="0.4" font-family="Impact,Arial Black,sans-serif" font-size="11" text-anchor="end" filter="url(#glow)">η*=0.040</text>
<text x="1050" y="40" fill="#862425" opacity="0.4" font-family="Impact,Arial Black,sans-serif" font-size="11" text-anchor="end" filter="url(#glow)">Φ=0.600</text>
<text x="1050" y="55" fill="#862425" opacity="0.4" font-family="Impact,Arial Black,sans-serif" font-size="11" text-anchor="end" filter="url(#glow)">r=0.50</text>
</svg>