<svg xmlns="http://www.w3.org/2000/svg" width="1080" height="1080" viewBox="0 0 1080 1080">
<defs>
  <linearGradient id="bg" x1="0%" y1="0%" x2="100%" y2="100%">
    <stop offset="0%" style="stop-color:#0a0a0f;stop-opacity:1"/>
    <stop offset="100%" style="stop-color:#1a0a2f;stop-opacity:1"/>
  </linearGradient>
  <filter id="glow"><feGaussianBlur stdDeviation="2" result="b"/><feMerge><feMergeNode in="b"/><feMergeNode in="SourceGraphic"/></feMerge></filter>
  <filter id="glow-strong"><feGaussianBlur stdDeviation="4" result="b"/><feMerge><feMergeNode in="b"/><feMergeNode in="SourceGraphic"/></feMerge></filter>
</defs>
<rect width="1080" height="1080" fill="url(#bg)"/>
<rect x="0" y="0" width="1080" height="1080" fill="rgb(117,53,43)" opacity="0.12"/>
<circle cx="108.0" cy="108.0" r="6.9" fill="#8844ff" opacity="0.0032"/>
<text x="108.0" y="126.9" fill="#8844ff" opacity="0.04" font-family="monospace" font-size="9" text-anchor="middle">0.040</text>
<circle cx="324.0" cy="108.0" r="103.7" fill="#8844ff" opacity="0.048"/>
<text x="324.0" y="223.7" fill="#8844ff" opacity="0.04" font-family="monospace" font-size="9" text-anchor="middle">0.600</text>
<circle cx="540.0" cy="108.0" r="86.4" fill="#8844ff" opacity="0.04"/>
<text x="540.0" y="206.4" fill="#8844ff" opacity="0.04" font-family="monospace" font-size="9" text-anchor="middle">0.500</text>
<circle cx="756.0" cy="108.0" r="79.7" fill="#8844ff" opacity="0.036892456266378326"/>
<text x="756.0" y="199.7" fill="#8844ff" opacity="0.04" font-family="monospace" font-size="9" text-anchor="middle">0.461</text>
<circle cx="972.0" cy="108.0" r="93.1" fill="#8844ff" opacity="0.043107543733621675"/>
<text x="972.0" y="213.1" fill="#8844ff" opacity="0.04" font-family="monospace" font-size="9" text-anchor="middle">0.539</text>
<circle cx="540.0" cy="540.0" r="80" fill="none" stroke="#5e357b" stroke-width="1" opacity="0.045"/>
<circle cx="482.2" cy="595.3" r="3" fill="#5e357b" opacity="0.15"/>
<line x1="540.0" y1="540.0" x2="482.2" y2="595.3" stroke="#5e357b" stroke-width="0.5" opacity="0.075"/>
<circle cx="461.3" cy="554.1" r="3" fill="#5e357b" opacity="0.15"/>
<line x1="540.0" y1="540.0" x2="461.3" y2="554.1" stroke="#5e357b" stroke-width="0.5" opacity="0.075"/>
<circle cx="618.4" cy="523.8" r="3" fill="#5e357b" opacity="0.15"/>
<line x1="540.0" y1="540.0" x2="618.4" y2="523.8" stroke="#5e357b" stroke-width="0.5" opacity="0.075"/>
<circle cx="462.1" cy="558.2" r="3" fill="#5e357b" opacity="0.15"/>
<line x1="540.0" y1="540.0" x2="462.1" y2="558.2" stroke="#5e357b" stroke-width="0.5" opacity="0.075"/>
<circle cx="465.0" cy="512.1" r="3" fill="#5e357b" opacity="0.15"/>
<line x1="540.0" y1="540.0" x2="465.0" y2="512.1" stroke="#5e357b" stroke-width="0.5" opacity="0.075"/>
<circle cx="540.0" cy="540.0" r="140" fill="none" stroke="#5e357b" stroke-width="1" opacity="0.036"/>
<circle cx="438.8" cy="636.7" r="3" fill="#5e357b" opacity="0.12"/>
<line x1="540.0" y1="540.0" x2="438.8" y2="636.7" stroke="#5e357b" stroke-width="0.5" opacity="0.06"/>
<circle cx="402.2" cy="564.7" r="3" fill="#5e357b" opacity="0.12"/>
<line x1="540.0" y1="540.0" x2="402.2" y2="564.7" stroke="#5e357b" stroke-width="0.5" opacity="0.06"/>
<circle cx="677.1" cy="511.7" r="3" fill="#5e357b" opacity="0.12"/>
<line x1="540.0" y1="540.0" x2="677.1" y2="511.7" stroke="#5e357b" stroke-width="0.5" opacity="0.06"/>
<circle cx="403.7" cy="571.8" r="3" fill="#5e357b" opacity="0.12"/>
<line x1="540.0" y1="540.0" x2="403.7" y2="571.8" stroke="#5e357b" stroke-width="0.5" opacity="0.06"/>
<circle cx="408.8" cy="491.2" r="3" fill="#5e357b" opacity="0.12"/>
<line x1="540.0" y1="540.0" x2="408.8" y2="491.2" stroke="#5e357b" stroke-width="0.5" opacity="0.06"/>
<circle cx="540.0" cy="540.0" r="200" fill="none" stroke="#5e357b" stroke-width="1" opacity="0.027"/>
<circle cx="395.4" cy="678.2" r="3" fill="#5e357b" opacity="0.09"/>
<line x1="540.0" y1="540.0" x2="395.4" y2="678.2" stroke="#5e357b" stroke-width="0.5" opacity="0.045"/>
<circle cx="343.1" cy="575.3" r="3" fill="#5e357b" opacity="0.09"/>
<line x1="540.0" y1="540.0" x2="343.1" y2="575.3" stroke="#5e357b" stroke-width="0.5" opacity="0.045"/>
<circle cx="735.9" cy="499.6" r="3" fill="#5e357b" opacity="0.09"/>
<line x1="540.0" y1="540.0" x2="735.9" y2="499.6" stroke="#5e357b" stroke-width="0.5" opacity="0.045"/>
<circle cx="345.2" cy="585.4" r="3" fill="#5e357b" opacity="0.09"/>
<line x1="540.0" y1="540.0" x2="345.2" y2="585.4" stroke="#5e357b" stroke-width="0.5" opacity="0.045"/>
<circle cx="352.6" cy="470.2" r="3" fill="#5e357b" opacity="0.09"/>
<line x1="540.0" y1="540.0" x2="352.6" y2="470.2" stroke="#5e357b" stroke-width="0.5" opacity="0.045"/>
<path d="M0.0,521.9 L10.8,520.7 L21.6,520.9 L32.4,522.5 L43.2,525.3 L54.0,529.2 L64.8,533.9 L75.6,539.1 L86.4,544.3 L97.2,549.2 L108.0,553.4 L118.8,556.7 L129.6,558.7 L140.4,559.4 L151.2,558.6 L162.0,556.6 L172.8,553.3 L183.6,549.0 L194.4,544.1 L205.2,538.9 L216.0,533.7 L226.8,529.1 L237.6,525.2 L248.4,522.4 L259.2,520.9 L270.0,520.7 L280.8,522.0 L291.6,524.6 L302.4,528.3 L313.2,532.8 L324.0,537.9 L334.8,543.1 L345.6,548.1 L356.4,552.5 L367.2,556.0 L378.0,558.4 L388.8,559.3 L399.6,558.9 L410.4,557.1 L421.2,554.1 L432.0,550.0 L442.8,545.2 L453.6,540.1 L464.4,534.9 L475.2,530.1 L486.0,526.0 L496.8,522.9 L507.6,521.1 L518.4,520.6 L529.2,521.6 L540.0,523.9 L550.8,527.4 L561.6,531.8 L572.4,536.7 L583.2,542.0 L594.0,547.1 L604.8,551.6 L615.6,555.3 L626.4,557.9 L637.2,559.2 L648.0,559.1 L658.8,557.7 L669.6,554.9 L680.4,551.0 L691.2,546.4 L702.0,541.2 L712.8,536.0 L723.6,531.1 L734.4,526.8 L745.2,523.5 L756.0,521.4 L766.8,520.6 L777.6,521.3 L788.4,523.3 L799.2,526.5 L810.0,530.7 L820.8,535.6 L831.6,540.8 L842.4,545.9 L853.2,550.7 L864.0,554.6 L874.8,557.5 L885.6,559.1 L896.4,559.3 L907.2,558.1 L918.0,555.6 L928.8,552.0 L939.6,547.5 L950.4,542.4 L961.2,537.2 L972.0,532.2 L982.8,527.7 L993.6,524.2 L1004.4,521.7 L1015.2,520.7 L1026.0,521.0 L1036.8,522.7 L1047.6,525.7 L1058.4,529.7 L1069.2,534.5 L1080.0,539.6" fill="none" stroke="#5e357b" stroke-width="2" opacity="0.2" filter="url(#glow)"/>
<text x="540.0" y="412.5232921501136" fill="#ffffff" opacity="0.95" font-family="Impact,Arial Black,sans-serif" font-size="32" text-anchor="middle" filter="url(#glow)">NEXUS: ChatGPT + Perplexity + OpenClaw. One memory. Many minds. Never sleeps.</text>
<text x="540.0" y="462.5232921501136" fill="#aaaaaa" opacity="0.7" font-family="Impact,Arial Black,sans-serif" font-size="20" text-anchor="middle" filter="url(#glow)">24/7 unified chatbot entity farm</text>
<text x="162.0" y="129.6" fill="#5e357b" opacity="0.50" font-family="monospace" font-size="14.4" text-anchor="start">arc: purgatory</text>
<text x="162.0" y="149.6" fill="#5e357b" opacity="0.31" font-family="monospace" font-size="8.9" text-anchor="start">arc: purgatory</text>
<text x="540.0" y="1050" fill="#00ff88" opacity="0.2" font-family="Impact,Arial Black,sans-serif" font-size="11" text-anchor="middle" filter="url(#glow)">⛓ dc0e912d750f</text>
<text x="30" y="35" fill="#8844ff" opacity="0.7" font-family="Impact,Arial Black,sans-serif" font-size="22" text-anchor="start" filter="url(#glow)">◆ EVEZ-OS</text>
<text x="1050" y="25" fill="#75292b" opacity="0.4" font-family="Impact,Arial Black,sans-serif" font-size="11" text-anchor="end" filter="url(#glow)">η*=0.040</text>
<text x="1050" y="40" fill="#75292b" opacity="0.4" font-family="Impact,Arial Black,sans-serif" font-size="11" text-anchor="end" filter="url(#glow)">Φ=0.600</text>
<text x="1050" y="55" fill="#75292b" opacity="0.4" font-family="Impact,Arial Black,sans-serif" font-size="11" text-anchor="end" filter="url(#glow)">r=0.50</text>
</svg>