<svg xmlns="http://www.w3.org/2000/svg" width="1080" height="1080" viewBox="0 0 1080 1080">
<defs>
  <linearGradient id="bg" x1="0%" y1="0%" x2="100%" y2="100%">
    <stop offset="0%" style="stop-color:#0a0a0f;stop-opacity:1"/>
    <stop offset="100%" style="stop-color:#1a0a2f;stop-opacity:1"/>
  </linearGradient>
  <filter id="glow"><feGaussianBlur stdDeviation="2" result="b"/><feMerge><feMergeNode in="b"/><feMergeNode in="SourceGraphic"/></feMerge></filter>
  <filter id="glow-strong"><feGaussianBlur stdDeviation="4" result="b"/><feMerge><feMergeNode in="b"/><feMergeNode in="SourceGraphic"/></feMerge></filter>
</defs>
<rect width="1080" height="1080" fill="url(#bg)"/>
<rect x="0" y="0" width="1080" height="1080" fill="rgb(117,53,43)" opacity="0.12"/>
<circle cx="108.0" cy="108.0" r="6.9" fill="#8844ff" opacity="0.0032"/>
<text x="108.0" y="126.9" fill="#8844ff" opacity="0.04" font-family="monospace" font-size="9" text-anchor="middle">0.040</text>
<circle cx="324.0" cy="108.0" r="103.7" fill="#8844ff" opacity="0.048"/>
<text x="324.0" y="223.7" fill="#8844ff" opacity="0.04" font-family="monospace" font-size="9" text-anchor="middle">0.600</text>
<circle cx="540.0" cy="108.0" r="86.4" fill="#8844ff" opacity="0.04"/>
<text x="540.0" y="206.4" fill="#8844ff" opacity="0.04" font-family="monospace" font-size="9" text-anchor="middle">0.500</text>
<circle cx="756.0" cy="108.0" r="79.7" fill="#8844ff" opacity="0.036900489746067695"/>
<text x="756.0" y="199.7" fill="#8844ff" opacity="0.04" font-family="monospace" font-size="9" text-anchor="middle">0.461</text>
<circle cx="972.0" cy="108.0" r="93.1" fill="#8844ff" opacity="0.043099510253932306"/>
<text x="972.0" y="213.1" fill="#8844ff" opacity="0.04" font-family="monospace" font-size="9" text-anchor="middle">0.539</text>
<circle cx="540.0" cy="540.0" r="80" fill="none" stroke="#5e357b" stroke-width="1" opacity="0.045"/>
<circle cx="522.2" cy="618.0" r="3" fill="#5e357b" opacity="0.15"/>
<line x1="540.0" y1="540.0" x2="522.2" y2="618.0" stroke="#5e357b" stroke-width="0.5" opacity="0.075"/>
<circle cx="479.7" cy="592.6" r="3" fill="#5e357b" opacity="0.15"/>
<line x1="540.0" y1="540.0" x2="479.7" y2="592.6" stroke="#5e357b" stroke-width="0.5" opacity="0.075"/>
<circle cx="596.3" cy="483.2" r="3" fill="#5e357b" opacity="0.15"/>
<line x1="540.0" y1="540.0" x2="596.3" y2="483.2" stroke="#5e357b" stroke-width="0.5" opacity="0.075"/>
<circle cx="488.0" cy="600.8" r="3" fill="#5e357b" opacity="0.15"/>
<line x1="540.0" y1="540.0" x2="488.0" y2="600.8" stroke="#5e357b" stroke-width="0.5" opacity="0.075"/>
<circle cx="462.2" cy="558.6" r="3" fill="#5e357b" opacity="0.15"/>
<line x1="540.0" y1="540.0" x2="462.2" y2="558.6" stroke="#5e357b" stroke-width="0.5" opacity="0.075"/>
<circle cx="540.0" cy="540.0" r="140" fill="none" stroke="#5e357b" stroke-width="1" opacity="0.036"/>
<circle cx="508.8" cy="676.5" r="3" fill="#5e357b" opacity="0.12"/>
<line x1="540.0" y1="540.0" x2="508.8" y2="676.5" stroke="#5e357b" stroke-width="0.5" opacity="0.06"/>
<circle cx="434.5" cy="632.0" r="3" fill="#5e357b" opacity="0.12"/>
<line x1="540.0" y1="540.0" x2="434.5" y2="632.0" stroke="#5e357b" stroke-width="0.5" opacity="0.06"/>
<circle cx="638.5" cy="440.5" r="3" fill="#5e357b" opacity="0.12"/>
<line x1="540.0" y1="540.0" x2="638.5" y2="440.5" stroke="#5e357b" stroke-width="0.5" opacity="0.06"/>
<circle cx="449.0" cy="646.4" r="3" fill="#5e357b" opacity="0.12"/>
<line x1="540.0" y1="540.0" x2="449.0" y2="646.4" stroke="#5e357b" stroke-width="0.5" opacity="0.06"/>
<circle cx="403.8" cy="572.5" r="3" fill="#5e357b" opacity="0.12"/>
<line x1="540.0" y1="540.0" x2="403.8" y2="572.5" stroke="#5e357b" stroke-width="0.5" opacity="0.06"/>
<circle cx="540.0" cy="540.0" r="200" fill="none" stroke="#5e357b" stroke-width="1" opacity="0.027"/>
<circle cx="495.4" cy="735.0" r="3" fill="#5e357b" opacity="0.09"/>
<line x1="540.0" y1="540.0" x2="495.4" y2="735.0" stroke="#5e357b" stroke-width="0.5" opacity="0.045"/>
<circle cx="389.2" cy="671.4" r="3" fill="#5e357b" opacity="0.09"/>
<line x1="540.0" y1="540.0" x2="389.2" y2="671.4" stroke="#5e357b" stroke-width="0.5" opacity="0.045"/>
<circle cx="680.8" cy="397.9" r="3" fill="#5e357b" opacity="0.09"/>
<line x1="540.0" y1="540.0" x2="680.8" y2="397.9" stroke="#5e357b" stroke-width="0.5" opacity="0.045"/>
<circle cx="410.0" cy="692.0" r="3" fill="#5e357b" opacity="0.09"/>
<line x1="540.0" y1="540.0" x2="410.0" y2="692.0" stroke="#5e357b" stroke-width="0.5" opacity="0.045"/>
<circle cx="345.5" cy="586.5" r="3" fill="#5e357b" opacity="0.09"/>
<line x1="540.0" y1="540.0" x2="345.5" y2="586.5" stroke="#5e357b" stroke-width="0.5" opacity="0.045"/>
<path d="M0.0,538.5 L10.8,533.4 L21.6,528.8 L32.4,525.0 L43.2,522.3 L54.0,520.8 L64.8,520.8 L75.6,522.1 L86.4,524.8 L97.2,528.6 L108.0,533.2 L118.8,538.3 L129.6,543.5 L140.4,548.5 L151.2,552.8 L162.0,556.2 L172.8,558.5 L183.6,559.4 L194.4,558.9 L205.2,557.0 L216.0,553.9 L226.8,549.7 L237.6,544.9 L248.4,539.7 L259.2,534.5 L270.0,529.8 L280.8,525.7 L291.6,522.7 L302.4,521.0 L313.2,520.7 L324.0,521.7 L334.8,524.1 L345.6,527.6 L356.4,532.1 L367.2,537.1 L378.0,542.3 L388.8,547.4 L399.6,551.9 L410.4,555.6 L421.2,558.1 L432.0,559.3 L442.8,559.1 L453.6,557.5 L464.4,554.6 L475.2,550.7 L486.0,546.0 L496.8,540.9 L507.6,535.7 L518.4,530.8 L529.2,526.6 L540.0,523.3 L550.8,521.3 L561.6,520.6 L572.4,521.4 L583.2,523.5 L594.0,526.8 L604.8,531.0 L615.6,536.0 L626.4,541.2 L637.2,546.3 L648.0,551.0 L658.8,554.8 L669.6,557.6 L680.4,559.1 L691.2,559.3 L702.0,558.0 L712.8,555.4 L723.6,551.7 L734.4,547.1 L745.2,542.0 L756.0,536.8 L766.8,531.8 L777.6,527.4 L788.4,523.9 L799.2,521.6 L810.0,520.6 L820.8,521.1 L831.6,522.9 L842.4,525.9 L853.2,530.0 L864.0,534.8 L874.8,540.0 L885.6,545.2 L896.4,550.0 L907.2,554.1 L918.0,557.1 L928.8,558.9 L939.6,559.4 L950.4,558.4 L961.2,556.1 L972.0,552.6 L982.8,548.2 L993.6,543.2 L1004.4,538.0 L1015.2,532.9 L1026.0,528.3 L1036.8,524.6 L1047.6,522.0 L1058.4,520.7 L1069.2,520.9 L1080.0,522.4" fill="none" stroke="#5e357b" stroke-width="2" opacity="0.2" filter="url(#glow)"/>
<text x="540.0" y="412.5232921501136" fill="#ffffff" opacity="0.95" font-family="Impact,Arial Black,sans-serif" font-size="32" text-anchor="middle" filter="url(#glow)">NEXUS: ChatGPT + Perplexity + OpenClaw. One memory. Many minds. Never sleeps.</text>
<text x="540.0" y="462.5232921501136" fill="#aaaaaa" opacity="0.7" font-family="Impact,Arial Black,sans-serif" font-size="20" text-anchor="middle" filter="url(#glow)">24/7 unified chatbot entity farm</text>
<text x="162.0" y="129.6" fill="#5e357b" opacity="0.50" font-family="monospace" font-size="14.4" text-anchor="start">arc: purgatory</text>
<text x="162.0" y="149.6" fill="#5e357b" opacity="0.31" font-family="monospace" font-size="8.9" text-anchor="start">arc: purgatory</text>
<text x="540.0" y="1050" fill="#00ff88" opacity="0.2" font-family="Impact,Arial Black,sans-serif" font-size="11" text-anchor="middle" filter="url(#glow)">⛓ dc0e912d750f</text>
<text x="30" y="35" fill="#8844ff" opacity="0.7" font-family="Impact,Arial Black,sans-serif" font-size="22" text-anchor="start" filter="url(#glow)">◆ EVEZ-OS</text>
<text x="1050" y="25" fill="#75292b" opacity="0.4" font-family="Impact,Arial Black,sans-serif" font-size="11" text-anchor="end" filter="url(#glow)">η*=0.040</text>
<text x="1050" y="40" fill="#75292b" opacity="0.4" font-family="Impact,Arial Black,sans-serif" font-size="11" text-anchor="end" filter="url(#glow)">Φ=0.600</text>
<text x="1050" y="55" fill="#75292b" opacity="0.4" font-family="Impact,Arial Black,sans-serif" font-size="11" text-anchor="end" filter="url(#glow)">r=0.50</text>
</svg>