<svg xmlns="http://www.w3.org/2000/svg" width="1080" height="1080" viewBox="0 0 1080 1080">
<defs>
  <linearGradient id="bg" x1="0%" y1="0%" x2="100%" y2="100%">
    <stop offset="0%" style="stop-color:#0a0a0f;stop-opacity:1"/>
    <stop offset="100%" style="stop-color:#1a0a2f;stop-opacity:1"/>
  </linearGradient>
  <filter id="glow"><feGaussianBlur stdDeviation="2" result="b"/><feMerge><feMergeNode in="b"/><feMergeNode in="SourceGraphic"/></feMerge></filter>
  <filter id="glow-strong"><feGaussianBlur stdDeviation="4" result="b"/><feMerge><feMergeNode in="b"/><feMergeNode in="SourceGraphic"/></feMerge></filter>
</defs>
<rect width="1080" height="1080" fill="url(#bg)"/>
<rect x="0" y="0" width="1080" height="1080" fill="rgb(173,31,25)" opacity="0.12"/>
<circle cx="108.0" cy="108.0" r="6.9" fill="#8844ff" opacity="0.0032"/>
<text x="108.0" y="126.9" fill="#8844ff" opacity="0.04" font-family="monospace" font-size="9" text-anchor="middle">0.040</text>
<circle cx="324.0" cy="108.0" r="103.7" fill="#8844ff" opacity="0.048"/>
<text x="324.0" y="223.7" fill="#8844ff" opacity="0.04" font-family="monospace" font-size="9" text-anchor="middle">0.600</text>
<circle cx="540.0" cy="108.0" r="86.4" fill="#8844ff" opacity="0.04"/>
<text x="540.0" y="206.4" fill="#8844ff" opacity="0.04" font-family="monospace" font-size="9" text-anchor="middle">0.500</text>
<circle cx="756.0" cy="108.0" r="117.7" fill="#8844ff" opacity="0.054500409215878565"/>
<text x="756.0" y="237.7" fill="#8844ff" opacity="0.04" font-family="monospace" font-size="9" text-anchor="middle">0.681</text>
<circle cx="972.0" cy="108.0" r="55.1" fill="#8844ff" opacity="0.025499590784121434"/>
<text x="972.0" y="175.1" fill="#8844ff" opacity="0.04" font-family="monospace" font-size="9" text-anchor="middle">0.319</text>
<circle cx="540.0" cy="540.0" r="80" fill="none" stroke="#8a1f49" stroke-width="1" opacity="0.045"/>
<circle cx="561.0" cy="617.2" r="3" fill="#8a1f49" opacity="0.15"/>
<line x1="540.0" y1="540.0" x2="561.0" y2="617.2" stroke="#8a1f49" stroke-width="0.5" opacity="0.075"/>
<circle cx="464.1" cy="565.4" r="3" fill="#8a1f49" opacity="0.15"/>
<line x1="540.0" y1="540.0" x2="464.1" y2="565.4" stroke="#8a1f49" stroke-width="0.5" opacity="0.075"/>
<circle cx="541.8" cy="460.0" r="3" fill="#8a1f49" opacity="0.15"/>
<line x1="540.0" y1="540.0" x2="541.8" y2="460.0" stroke="#8a1f49" stroke-width="0.5" opacity="0.075"/>
<circle cx="614.7" cy="568.7" r="3" fill="#8a1f49" opacity="0.15"/>
<line x1="540.0" y1="540.0" x2="614.7" y2="568.7" stroke="#8a1f49" stroke-width="0.5" opacity="0.075"/>
<circle cx="515.6" cy="616.2" r="3" fill="#8a1f49" opacity="0.15"/>
<line x1="540.0" y1="540.0" x2="515.6" y2="616.2" stroke="#8a1f49" stroke-width="0.5" opacity="0.075"/>
<circle cx="540.0" cy="540.0" r="140" fill="none" stroke="#8a1f49" stroke-width="1" opacity="0.036"/>
<circle cx="576.8" cy="675.1" r="3" fill="#8a1f49" opacity="0.12"/>
<line x1="540.0" y1="540.0" x2="576.8" y2="675.1" stroke="#8a1f49" stroke-width="0.5" opacity="0.06"/>
<circle cx="407.2" cy="584.4" r="3" fill="#8a1f49" opacity="0.12"/>
<line x1="540.0" y1="540.0" x2="407.2" y2="584.4" stroke="#8a1f49" stroke-width="0.5" opacity="0.06"/>
<circle cx="543.1" cy="400.0" r="3" fill="#8a1f49" opacity="0.12"/>
<line x1="540.0" y1="540.0" x2="543.1" y2="400.0" stroke="#8a1f49" stroke-width="0.5" opacity="0.06"/>
<circle cx="670.7" cy="590.3" r="3" fill="#8a1f49" opacity="0.12"/>
<line x1="540.0" y1="540.0" x2="670.7" y2="590.3" stroke="#8a1f49" stroke-width="0.5" opacity="0.06"/>
<circle cx="497.3" cy="673.3" r="3" fill="#8a1f49" opacity="0.12"/>
<line x1="540.0" y1="540.0" x2="497.3" y2="673.3" stroke="#8a1f49" stroke-width="0.5" opacity="0.06"/>
<circle cx="540.0" cy="540.0" r="200" fill="none" stroke="#8a1f49" stroke-width="1" opacity="0.027"/>
<circle cx="592.5" cy="733.0" r="3" fill="#8a1f49" opacity="0.09"/>
<line x1="540.0" y1="540.0" x2="592.5" y2="733.0" stroke="#8a1f49" stroke-width="0.5" opacity="0.045"/>
<circle cx="350.3" cy="603.4" r="3" fill="#8a1f49" opacity="0.09"/>
<line x1="540.0" y1="540.0" x2="350.3" y2="603.4" stroke="#8a1f49" stroke-width="0.5" opacity="0.045"/>
<circle cx="544.5" cy="340.0" r="3" fill="#8a1f49" opacity="0.09"/>
<line x1="540.0" y1="540.0" x2="544.5" y2="340.0" stroke="#8a1f49" stroke-width="0.5" opacity="0.045"/>
<circle cx="726.7" cy="611.8" r="3" fill="#8a1f49" opacity="0.09"/>
<line x1="540.0" y1="540.0" x2="726.7" y2="611.8" stroke="#8a1f49" stroke-width="0.5" opacity="0.045"/>
<circle cx="478.9" cy="730.4" r="3" fill="#8a1f49" opacity="0.09"/>
<line x1="540.0" y1="540.0" x2="478.9" y2="730.4" stroke="#8a1f49" stroke-width="0.5" opacity="0.045"/>
<path d="M0.0,547.0 L10.8,539.3 L21.6,531.8 L32.4,525.1 L43.2,520.2 L54.0,517.5 L64.8,517.4 L75.6,519.9 L86.4,524.6 L97.2,531.2 L108.0,538.7 L118.8,546.4 L129.6,553.4 L140.4,558.8 L151.2,562.1 L162.0,562.8 L172.8,561.0 L183.6,556.7 L194.4,550.6 L205.2,543.2 L216.0,535.5 L226.8,528.2 L237.6,522.4 L248.4,518.5 L259.2,517.1 L270.0,518.3 L280.8,522.0 L291.6,527.8 L302.4,534.9 L313.2,542.6 L324.0,550.1 L334.8,556.3 L345.6,560.8 L356.4,562.8 L367.2,562.2 L378.0,559.1 L388.8,553.8 L399.6,547.0 L410.4,539.3 L421.2,531.7 L432.0,525.1 L442.8,520.1 L453.6,517.5 L464.4,517.4 L475.2,519.9 L486.0,524.7 L496.8,531.2 L507.6,538.8 L518.4,546.5 L529.2,553.4 L540.0,558.8 L550.8,562.1 L561.6,562.8 L572.4,561.0 L583.2,556.7 L594.0,550.5 L604.8,543.2 L615.6,535.4 L626.4,528.2 L637.2,522.3 L648.0,518.5 L658.8,517.1 L669.6,518.3 L680.4,522.0 L691.2,527.8 L702.0,534.9 L712.8,542.7 L723.6,550.1 L734.4,556.4 L745.2,560.8 L756.0,562.8 L766.8,562.2 L777.6,559.1 L788.4,553.8 L799.2,546.9 L810.0,539.2 L820.8,531.7 L831.6,525.0 L842.4,520.1 L853.2,517.5 L864.0,517.4 L874.8,519.9 L885.6,524.7 L896.4,531.3 L907.2,538.8 L918.0,546.5 L928.8,553.5 L939.6,558.9 L950.4,562.1 L961.2,562.8 L972.0,560.9 L982.8,556.7 L993.6,550.5 L1004.4,543.1 L1015.2,535.4 L1026.0,528.2 L1036.8,522.3 L1047.6,518.5 L1058.4,517.1 L1069.2,518.3 L1080.0,522.1" fill="none" stroke="#8a1f49" stroke-width="2" opacity="0.2" filter="url(#glow)"/>
<text x="540.0" y="412.5232921501136" fill="#ffffff" opacity="0.95" font-family="Impact,Arial Black,sans-serif" font-size="32" text-anchor="middle" filter="url(#glow)">NEXUS: ChatGPT + Perplexity + OpenClaw. One memory. Many minds. Never sleeps.</text>
<text x="540.0" y="462.5232921501136" fill="#aaaaaa" opacity="0.7" font-family="Impact,Arial Black,sans-serif" font-size="20" text-anchor="middle" filter="url(#glow)">24/7 unified chatbot entity farm</text>
<text x="162.0" y="129.6" fill="#8a1f49" opacity="0.50" font-family="monospace" font-size="14.4" text-anchor="start">arc: purgatory</text>
<text x="162.0" y="149.6" fill="#8a1f49" opacity="0.31" font-family="monospace" font-size="8.9" text-anchor="start">arc: purgatory</text>
<text x="540.0" y="1050" fill="#00ff88" opacity="0.2" font-family="Impact,Arial Black,sans-serif" font-size="11" text-anchor="middle" filter="url(#glow)">⛓ dc0e912d750f</text>
<text x="30" y="35" fill="#8844ff" opacity="0.7" font-family="Impact,Arial Black,sans-serif" font-size="22" text-anchor="start" filter="url(#glow)">◆ EVEZ-OS</text>
<text x="1050" y="25" fill="#ad1819" opacity="0.4" font-family="Impact,Arial Black,sans-serif" font-size="11" text-anchor="end" filter="url(#glow)">η*=0.040</text>
<text x="1050" y="40" fill="#ad1819" opacity="0.4" font-family="Impact,Arial Black,sans-serif" font-size="11" text-anchor="end" filter="url(#glow)">Φ=0.600</text>
<text x="1050" y="55" fill="#ad1819" opacity="0.4" font-family="Impact,Arial Black,sans-serif" font-size="11" text-anchor="end" filter="url(#glow)">r=0.50</text>
</svg>