<svg xmlns="http://www.w3.org/2000/svg" width="1080" height="1080" viewBox="0 0 1080 1080">
<defs>
  <linearGradient id="bg" x1="0%" y1="0%" x2="100%" y2="100%">
    <stop offset="0%" style="stop-color:#0a0a0f;stop-opacity:1"/>
    <stop offset="100%" style="stop-color:#1a0a2f;stop-opacity:1"/>
  </linearGradient>
  <filter id="glow"><feGaussianBlur stdDeviation="2" result="b"/><feMerge><feMergeNode in="b"/><feMergeNode in="SourceGraphic"/></feMerge></filter>
  <filter id="glow-strong"><feGaussianBlur stdDeviation="4" result="b"/><feMerge><feMergeNode in="b"/><feMergeNode in="SourceGraphic"/></feMerge></filter>
</defs>
<rect width="1080" height="1080" fill="url(#bg)"/>
<rect x="0" y="0" width="1080" height="1080" fill="rgb(128,49,39)" opacity="0.12"/>
<circle cx="108.0" cy="108.0" r="6.9" fill="#8844ff" opacity="0.0032"/>
<text x="108.0" y="126.9" fill="#8844ff" opacity="0.04" font-family="monospace" font-size="9" text-anchor="middle">0.040</text>
<circle cx="324.0" cy="108.0" r="103.7" fill="#8844ff" opacity="0.048"/>
<text x="324.0" y="223.7" fill="#8844ff" opacity="0.04" font-family="monospace" font-size="9" text-anchor="middle">0.600</text>
<circle cx="540.0" cy="108.0" r="86.4" fill="#8844ff" opacity="0.04"/>
<text x="540.0" y="206.4" fill="#8844ff" opacity="0.04" font-family="monospace" font-size="9" text-anchor="middle">0.500</text>
<circle cx="756.0" cy="108.0" r="87.3" fill="#8844ff" opacity="0.0404295033222876"/>
<text x="756.0" y="207.3" fill="#8844ff" opacity="0.04" font-family="monospace" font-size="9" text-anchor="middle">0.505</text>
<circle cx="972.0" cy="108.0" r="85.5" fill="#8844ff" opacity="0.039570496677712404"/>
<text x="972.0" y="205.5" fill="#8844ff" opacity="0.04" font-family="monospace" font-size="9" text-anchor="middle">0.495</text>
<circle cx="540.0" cy="540.0" r="80" fill="none" stroke="#673171" stroke-width="1" opacity="0.045"/>
<circle cx="532.0" cy="460.4" r="3" fill="#673171" opacity="0.15"/>
<line x1="540.0" y1="540.0" x2="532.0" y2="460.4" stroke="#673171" stroke-width="0.5" opacity="0.075"/>
<circle cx="604.5" cy="492.6" r="3" fill="#673171" opacity="0.15"/>
<line x1="540.0" y1="540.0" x2="604.5" y2="492.6" stroke="#673171" stroke-width="0.5" opacity="0.075"/>
<circle cx="508.7" cy="613.6" r="3" fill="#673171" opacity="0.15"/>
<line x1="540.0" y1="540.0" x2="508.7" y2="613.6" stroke="#673171" stroke-width="0.5" opacity="0.075"/>
<circle cx="529.3" cy="460.7" r="3" fill="#673171" opacity="0.15"/>
<line x1="540.0" y1="540.0" x2="529.3" y2="460.7" stroke="#673171" stroke-width="0.5" opacity="0.075"/>
<circle cx="602.8" cy="490.5" r="3" fill="#673171" opacity="0.15"/>
<line x1="540.0" y1="540.0" x2="602.8" y2="490.5" stroke="#673171" stroke-width="0.5" opacity="0.075"/>
<circle cx="540.0" cy="540.0" r="140" fill="none" stroke="#673171" stroke-width="1" opacity="0.036"/>
<circle cx="526.0" cy="400.7" r="3" fill="#673171" opacity="0.12"/>
<line x1="540.0" y1="540.0" x2="526.0" y2="400.7" stroke="#673171" stroke-width="0.5" opacity="0.06"/>
<circle cx="652.8" cy="457.1" r="3" fill="#673171" opacity="0.12"/>
<line x1="540.0" y1="540.0" x2="652.8" y2="457.1" stroke="#673171" stroke-width="0.5" opacity="0.06"/>
<circle cx="485.3" cy="668.9" r="3" fill="#673171" opacity="0.12"/>
<line x1="540.0" y1="540.0" x2="485.3" y2="668.9" stroke="#673171" stroke-width="0.5" opacity="0.06"/>
<circle cx="521.2" cy="401.3" r="3" fill="#673171" opacity="0.12"/>
<line x1="540.0" y1="540.0" x2="521.2" y2="401.3" stroke="#673171" stroke-width="0.5" opacity="0.06"/>
<circle cx="649.9" cy="453.3" r="3" fill="#673171" opacity="0.12"/>
<line x1="540.0" y1="540.0" x2="649.9" y2="453.3" stroke="#673171" stroke-width="0.5" opacity="0.06"/>
<circle cx="540.0" cy="540.0" r="200" fill="none" stroke="#673171" stroke-width="1" opacity="0.027"/>
<circle cx="520.0" cy="341.0" r="3" fill="#673171" opacity="0.09"/>
<line x1="540.0" y1="540.0" x2="520.0" y2="341.0" stroke="#673171" stroke-width="0.5" opacity="0.045"/>
<circle cx="701.2" cy="421.6" r="3" fill="#673171" opacity="0.09"/>
<line x1="540.0" y1="540.0" x2="701.2" y2="421.6" stroke="#673171" stroke-width="0.5" opacity="0.045"/>
<circle cx="461.8" cy="724.1" r="3" fill="#673171" opacity="0.09"/>
<line x1="540.0" y1="540.0" x2="461.8" y2="724.1" stroke="#673171" stroke-width="0.5" opacity="0.045"/>
<circle cx="513.2" cy="341.8" r="3" fill="#673171" opacity="0.09"/>
<line x1="540.0" y1="540.0" x2="513.2" y2="341.8" stroke="#673171" stroke-width="0.5" opacity="0.045"/>
<circle cx="697.1" cy="416.2" r="3" fill="#673171" opacity="0.09"/>
<line x1="540.0" y1="540.0" x2="697.1" y2="416.2" stroke="#673171" stroke-width="0.5" opacity="0.045"/>
<path d="M0.0,538.9 L10.8,533.3 L21.6,528.2 L32.4,524.1 L43.2,521.3 L54.0,520.0 L64.8,520.3 L75.6,522.2 L86.4,525.5 L97.2,529.9 L108.0,535.2 L118.8,540.9 L129.6,546.5 L140.4,551.5 L151.2,555.7 L162.0,558.6 L172.8,560.0 L183.6,559.8 L194.4,558.0 L205.2,554.7 L216.0,550.3 L226.8,545.0 L237.6,539.4 L248.4,533.8 L259.2,528.7 L270.0,524.5 L280.8,521.5 L291.6,520.1 L302.4,520.2 L313.2,521.9 L324.0,525.1 L334.8,529.5 L345.6,534.7 L356.4,540.4 L367.2,546.0 L378.0,551.1 L388.8,555.4 L399.6,558.4 L410.4,559.9 L421.2,559.8 L432.0,558.2 L442.8,555.1 L453.6,550.7 L464.4,545.5 L475.2,539.9 L486.0,534.3 L496.8,529.1 L507.6,524.8 L518.4,521.7 L529.2,520.1 L540.0,520.1 L550.8,521.7 L561.6,524.8 L572.4,529.0 L583.2,534.2 L594.0,539.8 L604.8,545.5 L615.6,550.7 L626.4,555.0 L637.2,558.2 L648.0,559.8 L658.8,559.9 L669.6,558.4 L680.4,555.4 L691.2,551.2 L702.0,546.0 L712.8,540.4 L723.6,534.8 L734.4,529.5 L745.2,525.1 L756.0,521.9 L766.8,520.2 L777.6,520.0 L788.4,521.5 L799.2,524.4 L810.0,528.6 L820.8,533.7 L831.6,539.3 L842.4,545.0 L853.2,550.2 L864.0,554.7 L874.8,557.9 L885.6,559.8 L896.4,560.0 L907.2,558.6 L918.0,555.7 L928.8,551.6 L939.6,546.5 L950.4,540.9 L961.2,535.3 L972.0,530.0 L982.8,525.5 L993.6,522.2 L1004.4,520.3 L1015.2,520.0 L1026.0,521.3 L1036.8,524.1 L1047.6,528.2 L1058.4,533.2 L1069.2,538.8 L1080.0,544.5" fill="none" stroke="#673171" stroke-width="2" opacity="0.2" filter="url(#glow)"/>
<text x="540.0" y="412.5232921501136" fill="#ffffff" opacity="0.95" font-family="Impact,Arial Black,sans-serif" font-size="32" text-anchor="middle" filter="url(#glow)">NEXUS: ChatGPT + Perplexity + OpenClaw. One memory. Many minds. Never sleeps.</text>
<text x="540.0" y="462.5232921501136" fill="#aaaaaa" opacity="0.7" font-family="Impact,Arial Black,sans-serif" font-size="20" text-anchor="middle" filter="url(#glow)">24/7 unified chatbot entity farm</text>
<text x="162.0" y="129.6" fill="#673171" opacity="0.50" font-family="monospace" font-size="14.4" text-anchor="start">arc: purgatory</text>
<text x="162.0" y="149.6" fill="#673171" opacity="0.31" font-family="monospace" font-size="8.9" text-anchor="start">arc: purgatory</text>
<text x="540.0" y="1050" fill="#00ff88" opacity="0.2" font-family="Impact,Arial Black,sans-serif" font-size="11" text-anchor="middle" filter="url(#glow)">⛓ dc0e912d750f</text>
<text x="30" y="35" fill="#8844ff" opacity="0.7" font-family="Impact,Arial Black,sans-serif" font-size="22" text-anchor="start" filter="url(#glow)">◆ EVEZ-OS</text>
<text x="1050" y="25" fill="#802527" opacity="0.4" font-family="Impact,Arial Black,sans-serif" font-size="11" text-anchor="end" filter="url(#glow)">η*=0.040</text>
<text x="1050" y="40" fill="#802527" opacity="0.4" font-family="Impact,Arial Black,sans-serif" font-size="11" text-anchor="end" filter="url(#glow)">Φ=0.600</text>
<text x="1050" y="55" fill="#802527" opacity="0.4" font-family="Impact,Arial Black,sans-serif" font-size="11" text-anchor="end" filter="url(#glow)">r=0.50</text>
</svg>