<svg xmlns="http://www.w3.org/2000/svg" width="1080" height="1080" viewBox="0 0 1080 1080">
<defs>
  <linearGradient id="bg" x1="0%" y1="0%" x2="100%" y2="100%">
    <stop offset="0%" style="stop-color:#0a0a0f;stop-opacity:1"/>
    <stop offset="100%" style="stop-color:#1a0a2f;stop-opacity:1"/>
  </linearGradient>
  <filter id="glow"><feGaussianBlur stdDeviation="2" result="b"/><feMerge><feMergeNode in="b"/><feMergeNode in="SourceGraphic"/></feMerge></filter>
  <filter id="glow-strong"><feGaussianBlur stdDeviation="4" result="b"/><feMerge><feMergeNode in="b"/><feMergeNode in="SourceGraphic"/></feMerge></filter>
</defs>
<rect width="1080" height="1080" fill="url(#bg)"/>
<rect x="0" y="0" width="1080" height="1080" fill="rgb(121,52,41)" opacity="0.12"/>
<circle cx="108.0" cy="108.0" r="6.9" fill="#8844ff" opacity="0.0032"/>
<text x="108.0" y="126.9" fill="#8844ff" opacity="0.04" font-family="monospace" font-size="9" text-anchor="middle">0.040</text>
<circle cx="324.0" cy="108.0" r="103.7" fill="#8844ff" opacity="0.048"/>
<text x="324.0" y="223.7" fill="#8844ff" opacity="0.04" font-family="monospace" font-size="9" text-anchor="middle">0.600</text>
<circle cx="540.0" cy="108.0" r="86.4" fill="#8844ff" opacity="0.04"/>
<text x="540.0" y="206.4" fill="#8844ff" opacity="0.04" font-family="monospace" font-size="9" text-anchor="middle">0.500</text>
<circle cx="756.0" cy="108.0" r="82.6" fill="#8844ff" opacity="0.03825069624909688"/>
<text x="756.0" y="202.6" fill="#8844ff" opacity="0.04" font-family="monospace" font-size="9" text-anchor="middle">0.478</text>
<circle cx="972.0" cy="108.0" r="90.2" fill="#8844ff" opacity="0.04174930375090312"/>
<text x="972.0" y="210.2" fill="#8844ff" opacity="0.04" font-family="monospace" font-size="9" text-anchor="middle">0.522</text>
<circle cx="540.0" cy="540.0" r="80" fill="none" stroke="#613477" stroke-width="1" opacity="0.045"/>
<circle cx="609.2" cy="499.9" r="3" fill="#613477" opacity="0.15"/>
<line x1="540.0" y1="540.0" x2="609.2" y2="499.9" stroke="#613477" stroke-width="0.5" opacity="0.075"/>
<circle cx="615.2" cy="567.3" r="3" fill="#613477" opacity="0.15"/>
<line x1="540.0" y1="540.0" x2="615.2" y2="567.3" stroke="#613477" stroke-width="0.5" opacity="0.075"/>
<circle cx="460.0" cy="539.7" r="3" fill="#613477" opacity="0.15"/>
<line x1="540.0" y1="540.0" x2="460.0" y2="539.7" stroke="#613477" stroke-width="0.5" opacity="0.075"/>
<circle cx="615.4" cy="513.3" r="3" fill="#613477" opacity="0.15"/>
<line x1="540.0" y1="540.0" x2="615.4" y2="513.3" stroke="#613477" stroke-width="0.5" opacity="0.075"/>
<circle cx="608.9" cy="580.7" r="3" fill="#613477" opacity="0.15"/>
<line x1="540.0" y1="540.0" x2="608.9" y2="580.7" stroke="#613477" stroke-width="0.5" opacity="0.075"/>
<circle cx="540.0" cy="540.0" r="140" fill="none" stroke="#613477" stroke-width="1" opacity="0.036"/>
<circle cx="661.2" cy="469.8" r="3" fill="#613477" opacity="0.12"/>
<line x1="540.0" y1="540.0" x2="661.2" y2="469.8" stroke="#613477" stroke-width="0.5" opacity="0.06"/>
<circle cx="671.6" cy="587.8" r="3" fill="#613477" opacity="0.12"/>
<line x1="540.0" y1="540.0" x2="671.6" y2="587.8" stroke="#613477" stroke-width="0.5" opacity="0.06"/>
<circle cx="400.0" cy="539.4" r="3" fill="#613477" opacity="0.12"/>
<line x1="540.0" y1="540.0" x2="400.0" y2="539.4" stroke="#613477" stroke-width="0.5" opacity="0.06"/>
<circle cx="672.0" cy="493.4" r="3" fill="#613477" opacity="0.12"/>
<line x1="540.0" y1="540.0" x2="672.0" y2="493.4" stroke="#613477" stroke-width="0.5" opacity="0.06"/>
<circle cx="660.5" cy="611.2" r="3" fill="#613477" opacity="0.12"/>
<line x1="540.0" y1="540.0" x2="660.5" y2="611.2" stroke="#613477" stroke-width="0.5" opacity="0.06"/>
<circle cx="540.0" cy="540.0" r="200" fill="none" stroke="#613477" stroke-width="1" opacity="0.027"/>
<circle cx="713.1" cy="439.8" r="3" fill="#613477" opacity="0.09"/>
<line x1="540.0" y1="540.0" x2="713.1" y2="439.8" stroke="#613477" stroke-width="0.5" opacity="0.045"/>
<circle cx="728.0" cy="608.2" r="3" fill="#613477" opacity="0.09"/>
<line x1="540.0" y1="540.0" x2="728.0" y2="608.2" stroke="#613477" stroke-width="0.5" opacity="0.045"/>
<circle cx="340.0" cy="539.1" r="3" fill="#613477" opacity="0.09"/>
<line x1="540.0" y1="540.0" x2="340.0" y2="539.1" stroke="#613477" stroke-width="0.5" opacity="0.045"/>
<circle cx="728.6" cy="473.4" r="3" fill="#613477" opacity="0.09"/>
<line x1="540.0" y1="540.0" x2="728.6" y2="473.4" stroke="#613477" stroke-width="0.5" opacity="0.045"/>
<circle cx="712.2" cy="641.7" r="3" fill="#613477" opacity="0.09"/>
<line x1="540.0" y1="540.0" x2="712.2" y2="641.7" stroke="#613477" stroke-width="0.5" opacity="0.045"/>
<path d="M0.0,522.7 L10.8,526.0 L21.6,530.2 L32.4,535.3 L43.2,540.6 L54.0,546.0 L64.8,550.8 L75.6,554.9 L86.4,557.8 L97.2,559.4 L108.0,559.5 L118.8,558.2 L129.6,555.4 L140.4,551.5 L151.2,546.8 L162.0,541.5 L172.8,536.1 L183.6,531.0 L194.4,526.6 L205.2,523.2 L216.0,521.0 L226.8,520.4 L237.6,521.1 L248.4,523.4 L259.2,526.8 L270.0,531.3 L280.8,536.4 L291.6,541.8 L302.4,547.1 L313.2,551.8 L324.0,555.7 L334.8,558.3 L345.6,559.6 L356.4,559.3 L367.2,557.7 L378.0,554.6 L388.8,550.5 L399.6,545.6 L410.4,540.3 L421.2,534.9 L432.0,529.9 L442.8,525.7 L453.6,522.6 L464.4,520.8 L475.2,520.4 L486.0,521.5 L496.8,524.0 L507.6,527.8 L518.4,532.4 L529.2,537.6 L540.0,543.0 L550.8,548.2 L561.6,552.8 L572.4,556.4 L583.2,558.7 L594.0,559.6 L604.8,559.1 L615.6,557.1 L626.4,553.8 L637.2,549.5 L648.0,544.4 L658.8,539.0 L669.6,533.7 L680.4,528.9 L691.2,524.9 L702.0,522.0 L712.8,520.5 L723.6,520.5 L734.4,522.0 L745.2,524.8 L756.0,528.7 L766.8,533.6 L777.6,538.9 L788.4,544.2 L799.2,549.3 L810.0,553.7 L820.8,557.0 L831.6,559.0 L842.4,559.6 L853.2,558.8 L864.0,556.5 L874.8,552.9 L885.6,548.4 L896.4,543.2 L907.2,537.8 L918.0,532.6 L928.8,527.9 L939.6,524.2 L950.4,521.6 L961.2,520.4 L972.0,520.7 L982.8,522.5 L993.6,525.6 L1004.4,529.8 L1015.2,534.7 L1026.0,540.1 L1036.8,545.4 L1047.6,550.4 L1058.4,554.5 L1069.2,557.6 L1080.0,559.3" fill="none" stroke="#613477" stroke-width="2" opacity="0.2" filter="url(#glow)"/>
<text x="540.0" y="412.5232921501136" fill="#ffffff" opacity="0.95" font-family="Impact,Arial Black,sans-serif" font-size="32" text-anchor="middle" filter="url(#glow)">NEXUS: ChatGPT + Perplexity + OpenClaw. One memory. Many minds. Never sleeps.</text>
<text x="540.0" y="462.5232921501136" fill="#aaaaaa" opacity="0.7" font-family="Impact,Arial Black,sans-serif" font-size="20" text-anchor="middle" filter="url(#glow)">24/7 unified chatbot entity farm</text>
<text x="162.0" y="129.6" fill="#613477" opacity="0.50" font-family="monospace" font-size="14.4" text-anchor="start">arc: purgatory</text>
<text x="162.0" y="149.6" fill="#613477" opacity="0.31" font-family="monospace" font-size="8.9" text-anchor="start">arc: purgatory</text>
<text x="540.0" y="1050" fill="#00ff88" opacity="0.2" font-family="Impact,Arial Black,sans-serif" font-size="11" text-anchor="middle" filter="url(#glow)">⛓ dc0e912d750f</text>
<text x="30" y="35" fill="#8844ff" opacity="0.7" font-family="Impact,Arial Black,sans-serif" font-size="22" text-anchor="start" filter="url(#glow)">◆ EVEZ-OS</text>
<text x="1050" y="25" fill="#792729" opacity="0.4" font-family="Impact,Arial Black,sans-serif" font-size="11" text-anchor="end" filter="url(#glow)">η*=0.040</text>
<text x="1050" y="40" fill="#792729" opacity="0.4" font-family="Impact,Arial Black,sans-serif" font-size="11" text-anchor="end" filter="url(#glow)">Φ=0.600</text>
<text x="1050" y="55" fill="#792729" opacity="0.4" font-family="Impact,Arial Black,sans-serif" font-size="11" text-anchor="end" filter="url(#glow)">r=0.50</text>
</svg>