<svg xmlns="http://www.w3.org/2000/svg" width="1200" height="800" viewBox="0 0 1200 800">
<rect width="1200" height="800" fill="#0a0a0f"/>
<rect x="0" y="0" width="1200" height="48" fill="#111122" opacity="0.8"/>
<text x="20" y="30" fill="#ff3344" font-family="JetBrains Mono,monospace" font-size="16" font-weight="bold">⚡ EVEZ SPEEDRUN</text>
<text x="1180" y="30" fill="#555" font-family="monospace" font-size="10" text-anchor="end">foia-sample · 2026-06-27T08:56:50Z</text>
<text x="20" y="70" fill="#888" font-family="monospace" font-size="11">SCORE</text>
<rect x="80" y="59" width="200" height="12" fill="#222" rx="1"/>
<rect x="80" y="59" width="142" height="12" fill="#ff3344" rx="1"/>
<text x="290" y="70" fill="#ff3344" font-family="monospace" font-size="12" font-weight="bold">71.2</text>
<text x="20" y="88" fill="#777" font-family="monospace" font-size="10">HIGH — Significant redaction patterns</text>
<text x="20" y="120" fill="#8844ff" font-family="monospace" font-size="11">EIGENVALUE SPECTRUM</text>
<circle cx="1160.0" cy="135.0" r="2" fill="#00ff88" opacity="0.7"/>
<circle cx="642.4" cy="138.0" r="2" fill="#00ff88" opacity="0.7"/>
<circle cx="639.3" cy="141.0" r="2" fill="#00ff88" opacity="0.7"/>
<circle cx="632.9" cy="135.0" r="2" fill="#00ff88" opacity="0.7"/>
<circle cx="627.9" cy="138.0" r="2" fill="#00ff88" opacity="0.7"/>
<circle cx="625.6" cy="141.0" r="2" fill="#00ff88" opacity="0.7"/>
<circle cx="623.4" cy="135.0" r="2" fill="#00ff88" opacity="0.7"/>
<circle cx="618.9" cy="138.0" r="2" fill="#00ff88" opacity="0.7"/>
<circle cx="618.3" cy="141.0" r="2" fill="#00ff88" opacity="0.7"/>
<circle cx="616.4" cy="135.0" r="2" fill="#00ff88" opacity="0.7"/>
<circle cx="615.0" cy="138.0" r="2" fill="#00ff88" opacity="0.7"/>
<circle cx="613.5" cy="141.0" r="2" fill="#00ff88" opacity="0.7"/>
<circle cx="612.0" cy="135.0" r="2" fill="#00ff88" opacity="0.7"/>
<circle cx="610.8" cy="138.0" r="2" fill="#00ff88" opacity="0.7"/>
<circle cx="610.2" cy="141.0" r="2" fill="#00ff88" opacity="0.7"/>
<circle cx="610.1" cy="135.0" r="2" fill="#00ff88" opacity="0.7"/>
<circle cx="608.6" cy="138.0" r="2" fill="#00ff88" opacity="0.7"/>
<circle cx="608.2" cy="141.0" r="2" fill="#00ff88" opacity="0.7"/>
<circle cx="607.8" cy="135.0" r="2" fill="#00ff88" opacity="0.7"/>
<circle cx="607.4" cy="138.0" r="2" fill="#00ff88" opacity="0.7"/>
<circle cx="606.6" cy="141.0" r="2" fill="#00ff88" opacity="0.7"/>
<circle cx="606.6" cy="135.0" r="2" fill="#00ff88" opacity="0.7"/>
<circle cx="606.2" cy="138.0" r="2" fill="#00ff88" opacity="0.7"/>
<circle cx="605.9" cy="141.0" r="2" fill="#00ff88" opacity="0.7"/>
<circle cx="605.5" cy="135.0" r="2" fill="#00ff88" opacity="0.7"/>
<circle cx="605.4" cy="138.0" r="2" fill="#00ff88" opacity="0.7"/>
<circle cx="605.2" cy="141.0" r="2" fill="#00ff88" opacity="0.7"/>
<circle cx="604.9" cy="135.0" r="2" fill="#00ff88" opacity="0.7"/>
<circle cx="604.7" cy="138.0" r="2" fill="#00ff88" opacity="0.7"/>
<circle cx="604.7" cy="141.0" r="2" fill="#00ff88" opacity="0.7"/>
<circle cx="604.5" cy="135.0" r="2" fill="#00ff88" opacity="0.7"/>
<circle cx="604.3" cy="138.0" r="2" fill="#00ff88" opacity="0.7"/>
<circle cx="604.3" cy="141.0" r="2" fill="#00ff88" opacity="0.7"/>
<circle cx="604.2" cy="135.0" r="2" fill="#00ff88" opacity="0.7"/>
<circle cx="604.1" cy="138.0" r="2" fill="#00ff88" opacity="0.7"/>
<circle cx="604.0" cy="141.0" r="2" fill="#00ff88" opacity="0.7"/>
<circle cx="604.0" cy="135.0" r="2" fill="#00ff88" opacity="0.7"/>
<circle cx="603.8" cy="138.0" r="2" fill="#00ff88" opacity="0.7"/>
<circle cx="603.7" cy="141.0" r="2" fill="#00ff88" opacity="0.7"/>
<circle cx="603.7" cy="135.0" r="2" fill="#00ff88" opacity="0.7"/>
<circle cx="603.6" cy="138.0" r="2" fill="#00ff88" opacity="0.7"/>
<circle cx="603.6" cy="141.0" r="2" fill="#00ff88" opacity="0.7"/>
<circle cx="603.5" cy="135.0" r="2" fill="#00ff88" opacity="0.7"/>
<circle cx="603.5" cy="138.0" r="2" fill="#00ff88" opacity="0.7"/>
<circle cx="603.4" cy="141.0" r="2" fill="#00ff88" opacity="0.7"/>
<circle cx="600.4" cy="135.0" r="2" fill="#00ff88" opacity="0.7"/>
<circle cx="594.3" cy="138.0" r="2" fill="#ff3344" opacity="0.7"/>
<line x1="600.0" y1="134" x2="600.0" y2="150" stroke="#333" stroke-width="0.5"/>
<text x="20" y="170" fill="#8844ff" font-family="monospace" font-size="11">THEOREMS</text>
<text x="20" y="188" fill="#ccc" font-family="monospace" font-size="10">Φ = 0.994496</text>
<text x="20" y="204" fill="#ccc" font-family="monospace" font-size="10">η* = 0.005504</text>
<text x="20" y="220" fill="#ccc" font-family="monospace" font-size="10">37% = 1.000000</text>
<text x="20" y="245" fill="#ff3344" font-family="monospace" font-size="11">STRUCTURAL GAPS (1)</text>
<text x="20" y="263" fill="#aaa" font-family="monospace" font-size="9">λ=-0.2616 ████████████████████████████████████████ L4: 'UNCLASSIFIED' sev=0.30</text>
<text x="20" y="370" fill="#ff3344" font-family="monospace" font-size="11">FINDINGS</text>
<text x="20" y="388" fill="#ccc" font-family="monospace" font-size="9">⚡ Priority gap: λ=-0.261558 — L4: 'UNCLASSIFIED' sev=0.30</text>
<text x="20" y="402" fill="#ccc" font-family="monospace" font-size="9">⚡ 39 high-severity redaction blocks</text>
<text x="20" y="416" fill="#ccc" font-family="monospace" font-size="9">⚡ FOIA exemptions: 1</text>
<text x="600.0" y="790" fill="#333" font-family="monospace" font-size="8" text-anchor="middle">⛓ fde6470663e2dd22 · EVEZ-OS Speedrun</text>
</svg>